<mxfile host="app.diagrams.net" modified="2021-03-02T11:09:57.764Z" agent="5.0 (X11)" etag="ZvKlAG-q-zTs9GKd8Dz-" version="14.4.3" type="github">
  <diagram id="rRgY4jY0zMM_cP3rrb7Z" name="Page-1">
    <mxGraphModel dx="2182" dy="804" grid="1" gridSize="10" guides="1" tooltips="1" connect="1" arrows="1" fold="1" page="1" pageScale="1" pageWidth="827" pageHeight="1169" math="0" shadow="0">
      <root>
        <mxCell id="0" />
        <mxCell id="1" parent="0" />
        <mxCell id="P6L5Ttc8KSvzvgR443wK-21" value="" style="shape=hexagon;perimeter=hexagonPerimeter2;whiteSpace=wrap;html=1;fixedSize=1;" parent="1" vertex="1">
          <mxGeometry x="-780" y="90" width="910" height="380" as="geometry" />
        </mxCell>
        <mxCell id="vWGfqRoq9n1UjEpOMGSH-3" value="" style="shape=image;verticalLabelPosition=bottom;labelBackgroundColor=#ffffff;verticalAlign=top;aspect=fixed;imageAspect=0;image=data:image/png,iVBORw0KGgoAAAANSUhEUgAABdUAAAJUCAMAAADEuj+nAAADAFBMVEUAAAAAADMAAGYAAJkAAMwAAP8AMwAAMzMAM2YAM5kAM8wAM/8AZgAAZjMAZmYAZpkAZswAZv8AmQAAmTMAmWYAmZkAmcwAmf8AzAAAzDMAzGYAzJkAzMwAzP8A/wAA/zMA/2YA/5kA/8wA//8zAAAzADMzAGYzAJkzAMwzAP8zMwAzMzMzM2YzM5kzM8wzM/8zZgAzZjMzZmYzZpkzZswzZv8zmQAzmTMzmWYzmZkzmcwzmf8zzAAzzDMzzGYzzJkzzMwzzP8z/wAz/zMz/2Yz/5kz/8wz//9mAABmADNmAGZmAJlmAMxmAP9mMwBmMzNmM2ZmM5lmM8xmM/9mZgBmZjNmZmZmZplmZsxmZv9mmQBmmTNmmWZmmZlmmcxmmf9mzABmzDNmzGZmzJlmzMxmzP9m/wBm/zNm/2Zm/5lm/8xm//+ZAACZADOZAGaZAJmZAMyZAP+ZMwCZMzOZM2aZM5mZM8yZM/+ZZgCZZjOZZmaZZpmZZsyZZv+ZmQCZmTOZmWaZmZmZmcyZmf+ZzACZzDOZzGaZzJmZzMyZzP+Z/wCZ/zOZ/2aZ/5mZ/8yZ///MAADMADPMAGbMAJnMAMzMAP/MMwDMMzPMM2bMM5nMM8zMM//MZgDMZjPMZmbMZpnMZszMZv/MmQDMmTPMmWbMmZnMmczMmf/MzADMzDPMzGbMzJnMzMzMzP/M/wDM/zPM/2bM/5nM/8zM////AAD/ADP/AGb/AJn/AMz/AP//MwD/MzP/M2b/M5n/M8z/M///ZgD/ZjP/Zmb/Zpn/Zsz/Zv//mQD/mTP/mWb/mZn/mcz/mf//zAD/zDP/zGb/zJn/zMz/zP///wD//zP//2b//5n//8z///8AAAAdHR3Z2dnv7++oqKgaGhpISEjPz8+ZmZmtra1VVVU9PT0ICAhAQECkpKRvb2/IyMiBgYFubm4XFxe+vr4GBgbd3d03NzcyMjImJia3t7dUVFTV1dU2NjbT09NRUVElJSXU1NRZWVmgoKB7e3sUFBQ+Pj40NDQ6OxDSAAAA2XRSTlP///////////////////////////////////////////////////////////////////////////////////////////////////////////////////////////////////////////////////////////////////////////////////////////////////////////////////////////////////////////////////////////////////////////////////////////////8A9EGGvAAAAAlwSFlzAAAOxAAADsQBlSsOGwAAIABJREFUeJzsvUvW7CiyNehV9eccqpUToHGaf6tadw6sirVqAHcarGjnTCw6dzKaTgl78JBAAgnkkpydkd9xPUG4a2NsM4zPNDAwMDDwHny+XYGBgYGBgYYYrD4wMDDwJgxWHxgYGHgTBqsPDAwMvAmD1QcGBtrC4H8XAeb/DUQYrD4wMNAUeqZ0ra8pC5T9/+D1CIPVBwYGGgIU2ulGXVEYlcJFDjAGqw8MDDSEMKy+gNZd1/EZ1nqAweoDAwPtoByZf44b0CLfwPYtwBVxzcjgKRisPjAw0AzGW83msAEtZj7sdAy+B5k+F+n4j8Bg9YGBgWb4eEaBz0EDWjNFw2ebnkxA+npoMB6D1QcGBg4DjLHhLkZp8pGGNrNaMa2eTzNyxnyhdrRs7GcMnDHq89EGJtCfz8c4iWW+FKhAe5GxG+H9zdEu5I0YrD4wMHAYYGYOBqVnCraUrELNRC9lEaXA8T7+K9b2fAOk8/kv4K1m0p55/KO0P5lMfzOXN9P/Z96ITPk9u/6nMJpiYGDgBGYuttQ7Ey1YASZg9aX9TIRORK3xRE1nMLnzxe6yj9jieLIIOvPe2bCfbxXf/nPCOfs2DFYfGBg4DiAjfebYmYPhE4ouZmE/a7a2J2fGGwyDNJ6v7T9i7zvzm05mI98WoYPbCdTwlzoMVh8YGDgOw1ycZvVIWAdnTy/FEwh3ylVC9tQ5gNuSCJmYxwerewxWHxgYOA6xmFGBiXkcFqw+My/viChYh0p7wPhis39IgVeuPDOtbzJvDXepYLD6wMDAcQj3IqvCNqvDh6g3OgCe6uMwGj8IMFq5VC8fx97DVs9hsPrAwMBhOE7+kEdzS4FBg56E9E+4T0VnL2X1ubswUR8gXlE1dPUMBqsPDAwchnECDP67iIEJ6YUpW+HJwQGhY7WQ1UWY+UR0HdxTjxiYDAarDwwMHIbn3sjQRsShhxzD+JkWrM50rLXI6op6AHsrmJZ0HZjky8jGMblUMFh9YGDgMJjGNVOvjt2gdIw0cWRdnkokUS/2ZLLFjbFna7qDITYHTO4ltroOY9on+hwpM30e8IkYTTEwMHAULKRrH7IY2M9EtIZpmYPO8UQSYkDR55m+tbb9A6UB0AamIC6dtHiKbI/JWwcMb4as7jFYfWBg4CgwX4BRnlGDLFvgIhUN/mNzwLgMAZ+PUi6HF54xMz0JLx/hbxfL+LGl8OeAvCHYWOec+WEMVh94OoDeZ0r7tDxmtAlj7QjaXTRwDjPLQtyUnmk1kwsdt3+DMyH6TP9M4T/T+oRE6e7k4SsNMFh94HnQ1tTz2fzsX1DKgF6+2/OOeadf1vJDsGeNRdFaQK3YFIRp4QLr2Q0S1JiCFGCw+sDjYAkZZMitJS4ON2KSUR9RaGnbMKuHFw6cwGqe0eSXJbqk2+QOeyyFFGGw+sDTwMY5B11IpieZXR7Ngoliqe2aayjA8OFhrZ/GMn8X7SQn6CWtS+tQD1KPMVh94GkI32HjEkMlEozIhhxdvPxXSAQvRzr5ivVb6Kva1mZiH91zjMHqA09D4BmTKAg3rcUk5re4kGe1oJp3irHOd5wgVhOsPgQe84FDJSkfnDJwIwxWH3gcfHibdia6W784pHzP6jz35RMRu3lH4AQo5ckVXL5aMD4llhzTxgRpVgQ2JEgNcn4PBqsPPA+BtEI7XK4Q+IQzyoW1KcWIIg7zBvo75iMaS8guF7kj9Wm1HDQPbLjxtGd1DCcftP4evOFnPfBbABvYyOvvOHZPsLr/zImjwOiY1tdxeQ8E0bEJPQfSXcULh6rIBxGkPqRrXilH/SYGqw88C0BLGn9oHuKS1aeQtN1n5Y1yE9L6K7K3RslQ4mwsUeCh8atRqCnwMLpGGrQewk9t23ZPTOKhwIQI19RtD4PVBx4FIxlffWKoSE0PWV1/XLxjILsoT3U6GcLxMOhg7OGWcY7dxHReMAMf3AxO71z49emZRs3dnTQXSEysgVWGmaXPQjnvxF3mQDyP1QHKZ3uH0ckDb4DXFuxr9/Gev5StPqEXcX4DP3H2EEdfr2B1cHNnhaD9ahUqkpuUnBbyt/qsP/0ikJDdYnvUVKRZLWjdJShzc2gJqeDZL+FxXyTYAVFiUITH4lQTeC5kzh14JJQLZUyzOsRrLFBqAcil6NbvcJf6YH1JgSWMEz6gCqI/g+bwvL/Kt/BLAGqcyD0hLujI/SJ2hRe0dGg86jvQ+pN+1TgxEPVAFgWxMalFgY4BJvOU3QZ7gB/+qRaiZkTz3dEPxAvlrJUGSC2JsyBv/S5Wt8qBZEagPf6xdCCsu71RzxdEd5orRy74ehrjydBGXX7xXYVP+FmWYpWxT9AwfqKy5JaMb3SHrvFBv2rQBjR98UDRucbyPHE9zLvsCUbzr8UYI+d+t9r3x3KIEx2rOPcCBB4/WlDBhS76ePV17T7JIfT0CgUGDWyJx185hxes7kY2nnmCDLZXBnpqm4hX+4lSdtLUDCdWm8uH2GFWXxdJBPEHPOgDq/A0vQgJNTeYsfwoVre8rUNW12S7W6PcHjU4eXg+xSDDQ9gDDKRA8wph8kIV+D+0m1sRcC9E516PgNXDGBi/P5WYZMnd+kXeUsWLVth/9JrVo/WgxeWgo/WEovD9nnbmTNzlMUc4AFGJ1Mrd4A1y4yKJpBlDs8B9psOoqutIofn+b+pBrG70tGB1tN6RZiyX279ssQOdMVh9B/NoxjUhteg8yME/c//IgtbcnrKbh8zwvYGycaImz6TxwksiD4y7Jpco4PGRjW6tzw9EVmTKVrcNoQw4wYb3hRJ7P1YHG1+i60Z51n7vVZ8ElO8UFxOWF+GyntXBTeYKDPYbrN/xIFaf2QWVlYlMSCudG6QkIG1GLHbLQpMJWP3bFb8vkLcxBSKQuWHbD33MSOkG25I1rYmbePqmq0LYm98cb18tFkUOhsWO1GWIEQyRn76CcTC3NmT1tK7OeVsUxIExwfGetvq5hu4/PAStuF2CRpV2CuY7TJ8oQJSHIJ9I6fo646RY3WldPBC/yS8fbXCOgSFD0qDkYoAMdbTVccNwGjcY3tJN2PbRhhLbCqsbp1uRs8IOkaymhXrX9G1WZ+ZyGoonJZEisGrmEzhElTuXV84MhOTvD5ZPIfDcQaxHJWJgBJARYDqwOphGBAc6ljmaQysjDWN8o6ZYXXmHvfsl2djZYJ7b139VvrZso/H4e8KBNkYGanMLYhclBSqiFfHcjnV6OFA1p0lxNMIBICELKRzVF5gksAi5/NsKDC1W7FN0BQLCTOhuaogQl9F+ySRaMkOF6b0en90rzoeTcBmnMuWGTB+3QFtWt4kdGjKxnXbQK1cNKF4y1baW3mZ1F0EU7nSrrU6ZnPPXIqgtBZSgvxHfXXJFspTajdYhGhlsxM25br9iFtKX4/DuDoNrTooHVKKJrJDlRj8ixUDgKP3uFIC4TwmmuUMQNwESIxVdahY7Hj9H/uNC72gEoxb7Uzwdmeo6EmhaClJGLfMet7hppx+eE/Soc2SmSbO67RVxalu0Mzh55ce5HkG3TYyOQrUmVieLrcuLzKHmE/UkEwajI4WY5eq2/oq2NbgAHEnv+haerYD0c4enQbZ20YpSUfcH4voHgTFfrneIE+blHWLQzkE5sxEHU4GXIc7ylboGEZnyTSMbn/S6mqi5lqGL03LIYzA8ZzHfzTd+087xGNz3CIaVaeVZnaK/tXM8NoSR1d7BjfjRJARyf7YtLAfpPyD4MLVjXUePhrsu0f6Nue4Zt+on4+OaxAo1CRuuwPEMsi/IPavj1JWOThY5G42XoSAi9ViAuYEgXIq2GrufbZRh9U+iZRYmOdyR1V0wuGN1DHsjybUHq2PsHHng8P6aR9BgDo0MjigtvVlXEhZQ/Ahr191GP5MY1OHIAL/FnF/kHckUjpLzC0idCQR87IvXdsP86j6UMU4WEAswTTIGtHKP7hWjWq7B5IUs214qCHJZnBBi4bKAOyowxKo6UGAmjBjEY+1ZHThOesHq02JKzN5dWIqfhMLqZPSIdYFY11DsRxPKA60l1HIKWL3T6MdpWi76UwKFsrTeE7D4t2NJh+j5HQGvMw8Z7Sxx8Hb4TOvGLOLXYcWFMTGdN9WNumyFbwgd4Sdv5aNazBS4J9JzSxlL7vYpwG7kLfXB4OQtZW+T/dshPpDjpANWnxmQJhjJrKJ9gFlzVR2r0/waIlvHuoZ/mqefGMO9aeoUDxkpsISlD9PYmcR9FPg+SprWXBcJBEYCqbj5KG0DaJVzlwycQ+QADm3v0Cxh0loZKtFXctbNMPPstRP+TCNaF9Jmc9sEcnoiD4y7Ji7cN/0NhKxAgeGXX8LAiVstMTXXC9goDll9CpWeXVbfqQ4sgx9yN9GGkgsw62oO4jMtWNcFg/v7uyWC7Ti1OatTqDkPCBasXidEHhj3uCtRQ/PuEo55d17Zga5QJ0YgJyfPmOeuS80MLcQc6FVRzkbjB4Xg0jgaMefDENvuNd7BYrAQ5bEN/mn7QvIsRdZ6LBVNUyDA7PYhZbXZOcsW7VidtCarQfnQ7LOsriUYXKznyfVXYKZV2N1JYPSQFlbn5DjM6lPpyAMCTcu5jmuqGblLJsnyYAdiXVwJA0scdxbcZMGHb0BzcjQjmz77G01LkrQMQYyRd1TYjxAMG74vwKzmlqZ/FK2tLJJ4ZJYozX8yTsPfev0rarJja1rmwaDsybG6Y90mrG6fy+siwOMgF3HSVtMi61gHtjr7SbhJd71YeWs6IPrdWqzdJZxJkxSuweq9AUdViSeT+ml60h9tfJKJwD2BB3zwP2UU0IH3AGhqW9CZwvcTBnwrD4y3CemT+2Z2RgZ1qsCOTLNgXXCycBtPAtXViJjhH7aVNzYEeXk16WZ+ZOAK2nmaXbmlqOFBhmCBu0S6Fu+EH+iKY418ZXbE5jgv/kC5e2L54i7lXv19U/272b0yTJHb3bKMSbg2ZF0xoh0dN0CODhsPf6hborTEFJ4pvz9ylG787Ktm6m4eJ5e7DhQYykEwTWFo1cCbAGek/GZonFHrxDPB18Mapxyru4mFN8LB+hwwQjt4EvoD3AAg6KPowCTUnrmumailDWcEW7hLOB3PYPXXAW6QoBABbX2Ux90Tl4V2biHB6hDg+grlcLwyO9dlDt/o0SuQa6SNxqt+0Py9TDRgQL8pi0A9RKds/QzOnzMmEfk60BTmJpxu0XTQcNg9cQtSX7M6BFNW4IL3EHO/9H79xuudxMHRz44vG8cFkbuEf1EXkDom9sOl0+xyacomDRxffS+AesH03BwOuifu0SCrGJj4LehN6+xqgO0I8/OkvHsHt9BPH4DM8exVwBEcftxdUevIVedhGV0vf79afQax98GtsrwNBFjGq68Td3Z8JSL/cp5TW3Qtm4/hyi6bvlRfeOf7r8q7lXZ2Eezk+eRTXz7ncWDgu4hZPUUG3QhiST1ZKuouz0Rzr5o/b3zH7oQLNC7YYfb+o5/pUs/MdnCbfrNWsIG7Occuwa89bwIRq2dS+/VpplTwSWe5p6gerV+D3vdfleYzNm5FdTYoaLcel7nc963xG0zjvha0nKaysPNkrhkk3gK6Qw/+z19//vz514z5n7/+/qf5/RsjZPWLQqs3CutL9OmZk507l8TN+vHcatiRDYlpUIVNR4gr4QpeL7HEX+3aW8Ku7KcjeXOm+IxAVQ/4evaqbTSOzJkZ/V9L/Pnr1swes3r6nE6sXrK3LSOUMmzDQnvff3Hfrs13tB6da1E6RftOYXhdkfEwmEa5ax+w2mtDc/3vNaUzsf/dqoj2KGH1HixUOCy4QIQuqcaJ+9fsPl1YUa/Ve/Sz3tuV1stJ5h7TIHtjy8PQIv/5I8Y8jXqef/7KUDrhtgZ7wOo9VdjiW15sXPZm3a9rWimKbVrm8X1tUGWW9ZBc74W9lChwktfvkLuqBC0WRQk5/c9ff//99z//zH8iPebPPXm9iNWn5kOujfmJ4Vmti10W3Ht0cuXop7AH6d5tXupyn3m65+lPQ4nz4NSI5QHqSzP87bWWBXf/E8gyt9RhClm99TuZv6E/0meSwyLMsOSsRoV1uH/JLe8x+uk0sbSapV9N64WegxPxQL8TJvmPEHc64sW7UO9orntW3xI/W/PrVloSd2jJA+U/qOD2YUjI+jb552ry8y16zFa4dFwQ3b+otC61OLAo24tpvVhf+g0Hwyn8ve8SdQLNX9dVqxAhq+fPam1obdGdT0i/uKKYF0A7bRGCD4kQxhexepFXpH8007XOmSNZT5+8PMQWqhTvQevb+FMkr4g9/+eaSpXjdqyetp9pHYuCqGR7CvglAFzUdHT9ivPraliMu7A6rD7V376w6CtZHY4pCfdIq9calY2h3jtkiXDIPf5Psbby9z1pvZOuHk5Cob9lXspJWD1Q14HWgXB+baDF4sDwMhe8+gXl9qbzDJ8la8tF1/8aq0cDlmh3eSWC1OhBj1k1w6q9m+SgwXmLdQ2ao7aHe7ESFeKQe/dPuR+UzfWb0XqHGBj7thu37DItIadNpIDssro/ARczNszKwLfUIOudctYTPo3OwNXUcPkGInrQEFwf3P3XWD3ea8pqgacEi7iGXURC1Nq5UUOYo7z0RkKr7+HqrnjsAOfAgO5PlRP0rxvSept49egEg3l1gZa3NxOT6xSmXsy71GDN6hCxOq7GYGQxhgl7DAN8Gq/RiSszT0Dcbw8wq/v1Znef62msvnW/5TGaxK+Dr4TMbv+HKRu/DtdRynE6AOH1wXDgWBWP4OHr1TTFkWFLzTUP1uGrXcN/Kln6r/u5TE+wOrBRbt98kjxQ9gBNEojiNc0sp2pakXgld69uaRc7QJJ2u4SeJ2Z1WrWelzoGsuUnWobHnUbrMbNFj2tpxrb6/hPfjNUBeA3ryTHw3E6hArLP6kFwkW0YXFZURlTgpCr5aFz7cSPzuAtwbVLcP32X1U9Y3Iet/LviGOmWT8p9yNSjDOpap5bURVy/U4DjbsaA9EB7QkYgLQRffnnVkS6QBLSwurI0YbeMju6auifml4sSE5EBjinnrD1OJVpWBzTOgVdPY0UG/88CDG3PF+qlru4fIdsuX2f18DiZxry4NH3Apw5ofUsjp0P+WemL8qwurgcQZwVqWhN/vdIfYsHGjYnCXiF4nstY/ZQ6/jJj/WAvVdqEB73S90FNev2/DugpROt113TFLqubTBJPkkW0s4c1s+i0ZnURSwpYXc+kjv8HX4xTb3BdY2ZqlmDYT+pOA7+6kogIk1s+M3yOJdOtavIdVrd1nqiXCjapVWkfNS+PUIJuKVeWLMEUdAD4jQWsTMMZP5xCL8jEoxwnwNiCjTEZVg8e4EBrHMCpAMW7Zx2sxFEtqqwNH0/qNfjnkEj+1800mN386pZjU98q8gq+4GIPA7E5vf30UxMxhOhin9Ux/ZCZ7XXH6m4VIdgMothdvh4W8epLVWJ9egtkpKu8pkWEO7elkmGIppX3kNXtQ2qxoqXX3KmxxiTbYfOIF3kiggdxNAesDuBPI+Od+lQDonTJ9ctSL4uBSSyjXoFXGevHO7iiZlj13G/Gn2NiysHLemHB6k4mdWmxdcixAfDVx/E4EKtPYkBrVrnJsKaF58XWDopa3RFPs/dRQSJRN1CAzRiK/UUBltfTCCC3ZFBPVodYEfeQ4EzD8Tv0gaRtHbG6tnUnVWSvxraPVOHoB785Hrk47YX+g2D0w6eR2iPnkvJjOMIoZvWdfrKxqW7OKb0nL78VTmhRcK5vfB/+Ppja5Z97aTDLFe4kwsFBr1b45VNR+JCQcNF5J3rTicbBiB9uGQOz0oHDEo1eccUu6ikjfsrTt6uoF1jHQepcHO8YsYTdJrt+uetyUgzErL7hqtBGhQMu7gElshFkHOOCX+iPnOa+K3/IDTcg+kY3arF55AjOGtsvilk/0xQPjm3pgWP6i8Xft9JgVqtRh3YkUmyS0/Fo/M+G1Zh64WNCCJg1SbOtEZWxKrBd+YtS8IPl2NToh2nceE8Fm+ZgmNmJ5tmWhliByfm6QSvqmsEXs6hQuua7A+91q01i0afQdBx/2shM9quPxCkfwcscDGdxQki5lQaztNVXKbUOLHiY9wSmz0rZyoWFSn8BNRcl+MxTrpmyD3AEzmnrhwXG6iEJUqEelYY2VohCEnc6h5t25WMQlwpI4pnYu6yD8tZaeL7i1c8KLGrlevZWOK2gvCe48Vxem1c5GLax/5X/c8LgPnNtc6R19d2dLQAhJa+PbZfqiBwWGwWG/sZjomXb9IEhZDnStNKSlvQAk1dEgLtC/5DygHzH6D4Lb7Arlai24SOlsXxMWBxtWth5MnqNonxOS3pP77aP3RkOf50Rx/+6kbH+tdWoJ89P6YNZ4WfHMN813HNH0IX4+WQVp2NYMWrL0U+WOROaUl9eT9C4o/ipvWlwnpPfsirSWVre6BRelzBnb1hzzty+kbHebIW7lZu15EXesiIzUXOl/JA9eesxQWXiOA8jXYO+o58khxcMYYLzonFP0ReZfUwMa2r8xA1iN94irJ99jg2me586s+0c/vuctX3K0m+Lsky8W4axyLc01zTYEW3mrt+wW5fHCgXhZf1c9WGRYSZxtlaqwXq9q/LL9jYrLnP7reHNNElKgjQ9w3alNx4T9Ec3f94GTr6XxDae7t/ytv4b42M2n+nPuSxd/9xHgnE/im3OzLzrBVb59mmbr3sYFrNx2i64ZK3M3q2y8euHS649cLrAja8jr7CV1GbDcN/q9HMRP6fQgJJfEv1xviVyMssrVxfZFJXOLkP65zYSjGP1HUM45YqrIsDFNZzUpKzQJkwL6rPrCW1sVG5atztXBoMgHvoUdaKbsv3yyiNdWHSJuGM3aqMys9hOoQHjvITVz7dEZmxalDxte2rgl2FS0bQb9f37rIJy+gbNIKy+93qHdnMln0d3katxNfT9QhvSLCYi2BNx2oa/VI5+psXIZgMm2zSbLRb5U/dquAW22/VuHKjhjAdt0UAle8m0yvMtke4XSpywtmOEa7zO2hoHaesgJ6pgLqqaPu+vs2nS7yPByG9798fB4XTZSSYVsLfRnxK51aWfPQ/UzPfjWxrS+o5NvQ5ScQZ52c0B4tDwXcM5OHq6u6TASuuE2M7vcsQZso8WVPIOVj8fppLRcPbvS8QPF/lUZ1JPFjQba0mfDlWrJkLovIByVsJpBv5t77/jG+bhAQCmlynoSppxQj7ny6LEVgWWykvhCOZAGe5SzoS+Pxhp16TYNddId60wWJ3RYMRxVIpyhHlN/OPMF8n98EnWX/qaiiz85zn5NsI6N1WBRdXU6LK5UHSB3No6Iu7CEvcHImxbn+4t2c5XdvSzO82/xWBL7hVnDcvWrlFxAVp48t7B6g28A8cawufn7TaRKfyS4VO1codfbLs4jXAD/eS0htMK9JUWBaQ3ZfVCy781qxecciGrN2B0fzMMNtnveht2znY9poJkmYPV+6FJQxz6gjxvTp1WSorMbJ0RYNIw/plM6eM18HXexl2aYfUE2bR/O9dFVKTrblRgtxIL7mMa2s2YNEwVDH+aBm5eO/rxaBEDM1idcUjOMgHJ6i4ajI46C5URYNIITk4pNMn4xgaG9j/3ZnVOrxvva/3VrW9oVqR0LlJjr0S7Gl7FWqanyjp2SgVsAuOSlSnaOreey+qviGy8jtUBXxWbxAhPVwExmjVx2pNdclBcjtivWbzYYAXcvovG33858vyEZRh3C1rPkmqHV2mqUNAsKkHhKbX9r/Oi+G2CYNKsziuaxejP6okVjVAwbjXCW7E6rIvsxupfGf2kus6+JfYebyEaSLlfmFvqpmqkhDJa2jc41wKZauuWPVg9Pd6zNGsJWWHMCYSmMyztaDTk5zOZeS1Ry4LW0cZ8Doilb13vZn7VFUotc0kzqwcrvQSyOnI2ETfKjhMFPmrrrCOdRoVqjU4JRAlK+atBAMvdWT3xs/8Oq2MMZLcS1yTUjNXXBa3e5eYxYWtGXccZ9Q3Jh/Xop0fvdZ7Vr586yS+U/sy/hOVPGtf/0p6MMDybfvibFe3A6rmoEcOe8Q+RanjWQvMmngYOOaRnNcT80QaJI/LUYFndVoduHZegffwin8/Mrfm0+bgNnae9UX0SI4kp5UxoYKsPVi9kdWO7YUWDLFwrgiel8upKsrE+vj45OeuylwGdEHvWAlN7Vl/tSbI6rKWug0iNSFZFdjDWH5izkQmYBIElrSt8IEfrQKTOtLjRhVUE7mURE5zJNa0QK7KujqhSRU/DTwHC40FYe7TBtC98bT7C0x+6Z/gz8nGNYnrzv8oXZr9RMvSjEHaTVOTXjzlYvQkKFRiM2OtWYsGeY0UtqG25Hh2i+QydhIK4ZnVjJ2R19B5cwerPy6/OpC6WY0xaQudCR0qHwVEb1N2E1eOtXMsKdSOrq4UrM9gSFuWOK2LYaIOucj2ZdBTM6tGpPq7RcTSZ9ELgmuQa6klWrJ76/a1GOe9ndVpPbbHvG6yOyQWaDZZTInBCa29SVAmrt2/S1Z4Eq2uXbpjn/cvf/Mby5Pi0xf2vENZP/ySaO0t3emgJsBM2j3QBR0NMj8v4nHxQX4tY8aiwbMO6OiLBLlldhRsm+Dcy6qMN5GfwvVvUayy0euM0FUfvKtRy7JYfC5hlj5D8ajqw+s29pTeMgamZExmxDfgP685Lr1SZ99vq1uNFQ+DDrO6Ol2haPVj9NCm3dpZmhQuCcxYKxURco4XCmKT0YiiVj7k+EZ/prLaIPrPtKvwJSLB5W90Z06KvBD/AxYY22nst415jIVGpQKZx7UedhuaLsOK0CUWsvkQrVj93iza4V7x6vlDYzwXmLwr7JKZXgOQzmVWimfezukl5NI8WWELhPeYhnQ2RbrxoRtolFxTH9XX8PYUxAM7WBdGF43QamVnxeJvD7aB5YrAlcneTvDLn9ezPtLDOI1ZX0XnHQX+EAAAgAElEQVQRpUYby1XHpAX5pKWsruTuyl1OBwxvGdqEZTk5BWaF98erp0Aex5ZlV8Q604LMZedb8ztw2YFj+aJUYb1iYOwaIksm6R8Dk/aWHsm5lW6XVD+5eswerH5SWD9q44p1GcdH0xJaZnkOOaUxzDtWgy3CAGzH8KQfa3KVBgybirkmHO+d2COrbGULlopRTvpfCSuRDf5x7ktWSCIiT4xP3LYIMGs53gswygswgcNVqiPNvIiBKfuuG1Dy3/fKGFBAmPZ11W0tnCJWJ0qmkBbj9vHoH81vssFp5SVtOAZDaz5ubOQ9XT//u/+YrRhoPQZYDxWas3qKZLPn1CQrgFBskbjr5CNdxOonBeVjuryNw0ZpYBEfTcHVJj5nMhg1gmc6PcFzeTBZEhasbvsM5UJgsLrZ4N4TShJHT1qTfX9hRyFMnYo7DGrqeJZot5zVXTCLcv+g3U19iFwoLWXiaigx2TVepWJWL/yptMkDc6fsXgV050IMGwESjLM+x1rdoIkpgKeRWRsIw78pmwzyCJ1mGZ1SF86srrEzoD1y/fdYvWdZVXd0E/5M4RiNhKpAP0Jrn6//ymNaHDHW/Q/ukHCBFrMP7fDx0YFvLzzHUpM29hRVyOrBcVxuxFU8y0wnHAz6E2OzRU3AtlTRSFmhGvuoQj0PX+wkKhCzmSNU/IZQPMQOB+ViWsjSZBXftxpb9Co8zZvsBu8ddYL6U/hL+dMkZ+OdMvEW5Fc32KG30ifKMonT5M+I1Sk8By1HssqNZs5BGgcyw5Dhgf6bNIsfoIpKbIMyuttauehIofs/YDA8bNCBEsO5fN0fltvsZ5pmbDdtLnUieay2FrrfLbELqx8x1t3bfsjCVcG8xSg+OmDd8BxL7lpkix1Wd57LgL6V372hIhwX1uGzxAavk40OzrsZcqWR0PEPtojC4fJceQpcVPjbEaHEb6CNCDrWySXkVonojmMi34VwQ/vTkBkCk50Mv7ATLE4gc97SvksIjF8LaYcP7PttA8fX7sVqgLvJHskiq6Ad7lndEMsLwSN/TyjAAJnkltWBNzV/8Lb6TuXbMVDBnQwu5NGW1UsGI3M/aDs9fz7NezWidgFv42lGEnrMrE6+Aduq7vqvsfqRaURaRptHxpyao+Y0bQTx0X7IH52DJ9G1QWBeqa0ebWx4/E7EeHo6d2Z7tmFsFwPa0z4E5rASM/tDVf1Qf+fCz/2PPNywzgjfj1CqfrfperS5RU04u2JuW2PCq4JeNLwqkIQ2Giga6ZxWxW+TsrF03VKSrmmO54n1M0gwCcZue6w+saFNuromDxTxNSBdSxeBhIP3xkOspguru+t3SmxJQPvDgrZrepIWtXs3Q22lDbMy/hXXBTsr7Al8GtE4jYmcoEUqGF3/lUy8+CD1xjqSlzlm55PBGPj0grmSokfE51jhwMnBztvnWV0Ft9bLT1Nw92mCPKufiG1UjspNYK8nC7IViN95T5wu0zrvEItNDoeXZTdmYo6PuQ/LX9jiFvEx+eCbUW+2Tzg6OR1t/ucuztIgWHXr9YT1N1WbGjx9yeYdgE1xkQrY/UnWpCEqpwgXOY18qoZ9q+D+8zE0m3VumRi3gNXBLpBdtEJTQWEuhHy3VtT9BaxOvabmj9Lm3Jk6Aca5KSyxm0muv07TWqIm4TaBaExvLjSfv1a5hIKL+OjAZA/PiUzwFavnYmCSAY1bMdfHo4GM4/FQjEnSekLYd2KMOi7tO5QGlZffDxYfcucFGyeXMvrnNgvcBay+RS6pQxAiX8D2abuFysSknXj1IBQcUGhfngvAIlPtYx5HwUDE8NTwM8weX19QKCpSwLo4DnmErykqlGOF/Gn4f4Ndqf06SNByCk5BiX1QvB6CgxinR0SLyKkUx0c7ySV2PAWyiSPrMF7ds3EYrx4aoiUKzAl/KXG5cp822iYVhMP032QppOJAleIbiqNjp88LBay/zxnr9xFgwolleWbJv5lQjNwNskMEusaNv7Z5LximASRXtQ94L3Ojppb67v3k8WTjALcnW3dfYjLkXvDjGadegYx+jDvNMzrIKIjdFOJt3dbyWzdqiOokKI666s3b2IpexEf7SJjwxoHGogJjHOIPFmYxt9Tt1ssTUjhurKvPx0lI27p6qsk4YVcTOs6Hbh4F1Wu3bSJb/l+njPVzVzdF+GvJvIElL2YtmfNVGAKfPsfPCS1BTl/L1LVi9wlsDwvWo4nSZovPXR/bum5yPaBENoKMg7yCE502cZgRnYUX0OnGnV3zmC1Rm3h/zyLdQGwtL+Kj7TFYWdQBE3rSKsoD466S222assd5VQexOZu9XS5D1jpb1DHAkY527546lyo+Qmis/3XGWD9p6TdFZAMk38F+L6YESyaVmSzdNyj3qsfcGv3kBwzJnrG8x9x4ECJhmUq23XuECXUBO99UN7RTYl9Sr5bW99TjDSwDr/Fyjo+2SgnA4pwoP5UJtJR43oyPu6YKYicq5nzQK2w96GFjHQKVf6urw6kqHfPRm6JlzTsh6K9OKeM3MtWXCUnXOb3ORzLmYWhi0+rdt3wxD3I78vpFj5lTJ3YjECP2xvmaxaZ8Pnm66x8Kar6KVjgisxxITFCHlS9sbiulPHWrOHtbQOrVHIJRc0AsvIiP1pIuIDwnnlTvp/xrnnMpblYVHJdjHNYdTsOvaoWtc6MG+kgDNZ5h+CRwF2rsfN7/61//6/+I2qUcp+z81lj+XCDkt/RCEytsTBLdNgeNEUUyCnckWTeMZm2O6DFbzwUKy0neuB/bza+syvSG/R7y+sd0CBdFtq+ligYVQPkptTN+hcsO/K4wvNrFNUbx0U7ICM9ZTlsP1RjjbG8XCaPt8m5ErEAdUsCymzHXU7EGAybdQB9tVHsF5DnAdrG/EviHDXWgnA0VZuXfdzLVU4sHkFMs7XNMIsvqsB25Yr1z8tvl8jDKAneZ3taDK7Aj2yUHAcn8ta2KY00r4S22rNFt4JUw5ns+ZlCK6NQ4tkufYo/xhNBDZrrcJ+HDkCMb5xDC8L+wYfyVocN/8ZPcjrmeihwMsNdAv2qq65wZVNMuqN3cxlTPLglTFYpO68jRZ/9DJVfKVpDLNMV+TXBOu4mWre2OC5hnweuFZHeUeQxNfVksB4KkC/s5nE5gwevXcPo00SR2szdHd34/Nc61+ZZ6eyC63mFfYdk9o6yBKuv1AuwutGZ0kXH55z6x6hYtFvoKsydKyi0AWX45r/JmDrhZ7A2qtovO7jwuoya+hS7ZaLXtkBPDr+/atQoqztrdGgceswlU0RKI1lZtHj5XATg+8izoirdj901Rb17GX2+CKchAXHQWiur3mFaKaMHqTq8xnE8LSNkgasoRSUF0/AXccA37VJMdZPhnJ0Ccgs2XhUqMou49/JHSruR0S1mFpX3XHD1M60Xjqw1aL28g02w92yeg/GnTZ/7lBBfSX1rVqwEasbrW/D5TikRM/wQHWT2i9QbV28Kl/FMBY5weBTwMmogypykfI5wPdsS/XR0Iu5XoVFoVERVnZe2Bg7Re2BPlaL22gb44nLkUde1i1u3yjzPObyaqT01YnaabE6tjei3DKbc2WX3bi+o+nq/eJm5K6hPN6PQzPydOpOin9aewzeo856g3Lm3SWpque5cfhTStVzfQJR2f+41QtIL/QZ/IHFiHBE1vY9Uuf0RIx/CX+8S/WLRgdS2sjitVoClpbfVpU1cvY/XeuCmr2+yU2qebRHELJ3hql5E4ddUdRj+XfnsHpsaY18bwJWj9SCe2F0Z5CsDB8lLEPMhHSC0xMlcFxztR/JF2iX9s/4iSjpr6nUT1qZG3FAK1gE1CcJPKqwWYweo2ISJGeHJyc5SqtVuO9Qyr9zfWr2vSYwR9pCt4BszSb1JtkCKgRRJGfzeDywi4zbqfh8ZeoPUA62DHpcNqSNTLHUm9CavnsTGcKmX1viRxU1an1SooZy6nwiUqNxsKzD36yevK0kff9eqsYI9BLBPUJ7V0t2n2HdrpPYlsE1UIomSbTLg4PFwLGpRkl3/9/eeOpN6Z1cvMx+1DXV18N2V1Y5xt7rPDczL5bItsTuPtVNG6WjTFCW5uyFo3Qyi5HO71TvQHVAljenkvKCPNuZRiJx7O9wf/CnErTd2iM6vnUW5ZdnwDC9b5vBkgkTbHH9q6LNhoW6XyWrTEKR3lHGvdGi42/dSI5Lg5q2n2/Ymy92Bn85+4/ERnN7mpzH+FpH6f2UeCB7D6dypxVxzStC4UtS5q0pPi+ItpnedLnpSZ4CCtXxM9K4D6BIBt2iUk9TuFNDIGq78Gv8Tqpz2e19D6coLvRbNuQavTawtV0brpapxvQKtPXQqb0z4VbJc/ntP/3JDUv8fqNZL7iRdh+9LHCTBbuEk/eUVR+nwYSwdaB5pirSk4z2UDjhEf4CTLrWvSwiFcmN8XKFXm98wjW4H8z2Eht5jzfAef/ze01O/mKEXckNUTqfEWpmbxa0DpaGRLErK6Ep4nq2/ikGv6sjo0RJMglkaRMEjlWnEEnrLB10UpE/CnibHacq1uR/CN1hItqAx8ldF3AfGYpUlXDv9n5Cq9n6r+XVbPtHBiQBXnHyzjDoyXN+EaXDDJ6mzC7zf+PR7ANaOfo3VohzZLZZ6kdSZzpOPTsXv4NgjBWwv+ZChgm3FIo3a+EKucujpa4alVu5CR/ucviz+3C4CZvsnqOQLY4iaJ7RMjm3oG/yeYAYWEbs0IDPbmY8Cpx/n6d5nqVbZ6vKdGN4mSi8mgx+26QjVupZ0cE+dxRQVm8x5Piya8OrQej6DV9Nms0JVfb+u7gGWafRUtxtoqD/W//vXXHS10jy+yepoBNlSR2SSyo1R7Ev2ocI6OpEoByhxpJyEbzmGA369WfFzrKb7+ZQJMnlIT+5fu01J+olYGt8XXS7dwhazeLEd8bffAK+SojkvqLktTZLnvnhtttZs8m2xqm8P/W97RAthlMNxn9GBI6zTwxhD+ufv05O+yeoJtNvIR4oxLnjPPuQsp9RURjWVxZHXicDbVbTpJSqCi5XRhddFhNhfoM0szlEx+lwQeN3VySe3LURPzCP7f7cVN3GkgKQv8QtXAzeGuv6AVmr2bNb4zx+eXf80l3A6RVNJw6myi37s3pS+gyS9NGw0FpWbDxU74JqsnaD1PjkCJ28XWNkTNnMSdWR5tKDnNCzCW7Tnve8jqYmjmRUzisdAwpTlA2D/YXXJLU6j190a6DhvKjHSAkt6XujHO/Ut/aW6r7UFtG3Jr270Gm07zN3AVq0PLX2xJD8FBHt9dAU56lXQtooWvmzLOuoe4w8+8FLJQLX3LLdvl5i6Hr7L6MpxlM3Zg/mEzvbCNjCt0xKwOTOOcEphSqVhiNvgf9wPC6mxu0/p8XpF3f1jBIXscz+ehgZJxgEL9nnuTG6z8mGy//LSlCZvFeFZnmpYMwEH3KA3IvSc+9cR9pfLX7wsx0Xcspwe7JS+cgfQc2KZr9O0w4C0I3YOpfW21q9An2FYd6Lck4gXQEkWK7/EPtct3WZ0lWXCftk5lemUG9XK6IbrlP5TgkFUFijED1GDYU+q9pVwsUTKwLO8WqeDEWpNjObT1tbA60DiAOxH7i7kDq6fodGv4gxa4ifKGYWNN0vFpbtKJn1x6T3ZTUOsjq2vfpDvDn0Dx8t88d9fcb9PwJ3WTxpm5sre7GaF7ELVHFYMwt21jK5JvB4/MiOYnB0DbMd7dNZhvs7rwesGkO+3DXJCI2cm3jIPRxn0UvTv8z1/vGEhUG+QwInZaoM++KaAML9vH58CK1YkCN+T5C7Fsxq1mJV9zqMBQrkgieD1RlwXiIZXEkey4ULKgR2Sr433zARIgUUmudnYoANydTDK04pngCU5t/TKlbK6vT6zZBdVQmseEKctbG5Fak3v0xq2RAzhS/6ge7XJffJ/VLUqmbRjxVG2fHFAKzvJYMwME/QCzOoo7zFtOy/EfAwUnYnVWYCZZu6juoTshbJ6ddjUyDplISULPMj0pciuQrc7DFU4NzE5T7O3Iwna6ugSMapCyZfiDC/ZJVJJRdgf+h+qVprYTR+zcvEDf27pFm79LS9PWxsZ9bmiiryGjCWeSYmM1F3zh8yT3aATtWf2jWxPdrY31e7B6CQpTaJQK9XIAWVkzwwTW6BS4ZDWbp7TQNtKYW8IvYPWbfM0y3uB1BjfAHaXEsJAMBUv3gpxmWO8G0UwkItLFwHBp5KUmMUeTegWynhMNoSyLS0gS+ku0Y3XAWd6AmUXMisPbv0rBlHKOdr7J11gEZPZQPW6v9949ii+PIDvDVlKBg7izsf4cVrdo6ID3rD6xoeqlZRdNY9iSFwlfi2DPJq5feu4mujqjTNJyCfZ2zg1MZhtZuu4qQFyc/nzuDY33T6OZHyo4QKGp2KXq2FaXmywNzw7qrhi3lh+fxegCb5LCusXOo8MtrwEQn5Mg257nOtyyGW5cta4QZlpH5AXyTKDL8zFnwq5PflLIF8Hb8pt1D6UlgGDp4OCUqAVEO+d1VlmmB/nLQUpahj7onTBToKvbm5iUrd5jMQbLhebmOvomAqEBemgl9w73yMMEnXQPw/rGutSdWN0xLXNlz9csVNWz55Blmr4yc8OnoeXoR9I4sM7OWvzkZXqKqSFd3rM6aB/6wsEwnB9rqat3MRvtJJ8bv6D7+ITocP+1DvY89BDBbxyz/hVWdxNI/QeQyEPWN3AV21RwW5uvx3cgO6c9lKzL0V7TApnPxF8fSMDpRKHunvP5G+fQUp6kCi5GdRUD00XKvLXbqwA+0kPpputIO9zJ8juGPgR83x/Od1gdlh9oqotEY1DMOQZdJDTcJhW47RfSE10f2ok5W8MfoxPJFbKzpJb7+7xGvdbYvAgswOg+vlIs4ckjGUSfJ7ivv/RrrC62HEdroLwqkzndID4RstyI1Rvc5FZYd5TUtj791sQTNns9+v600gmrkNDlc6y+3O4z5L3vy1mEYDWgTg68G0sNhehjDty3Xb7B6iBpuXDCv+FEihhdiIEPFCoOHCC3urpBBV5H6mtWF03LJQKg8MKEJ6FNa1zQpp3o97FBHoTAy9uJZu4c7VGEXt/wbdvlK6zuMrLQLEITsfqkwtSAXVa3fWQA2zZA/sgHmuTDU0QNTJLlMpEVswUhX6Fp9QrGuO3LWYteo46Ha1T92uWu0tSXWJ1ilF0cBIexgQkVGApuSzHwyR/ZC011I6Y4pZD0mYitmUIzN7VEp6xC+Nqw+vl77KF8HG2jl8ordNuXsxZV7Fvx0E8X1svrD6ZmzsJttbtvsDrFMUtuLv5AuVg4AMIYCYlITsM/RyEvJHWZKCUT/kNW51wGlLNGZs+2xhVtWj6ONp+5CVQxx9325axFxctsVIXW/PTYxuJH5XzspaffVrv7DqtPnr/9snOcd1FmbtLU9GTPeYpD3kjqk6Nx7fwV3lafxFYnRu9heV3RqMWqscFMV4uFiLfOfzhpCSq6PRUsEdTyxvdEKcnZhBHKL7Oxi9s6HL5QrxRTJ1hha8LmCQ55ZVAj5R8jE51do5yZxmiOfdHsNk3b6icb5ZI2LTWpgefi6E/pBQ8nLUFxt2etpxpWj1jiv2uqdAuUfr8GjXSIstVvY7C6IJ3bsD1954p/Ial79Yo/cFIbY4LpPjw+4gn5yxs8YPhTyurC5lBKXLc1uSpRoyQdZfX//PvfFTW6B0p7OyXxocXG+l3dyF9g9a+2xCtJnWJbJM8CUKy6CTd8KsZMANCZdrlo+FP6CrlV5YttrsHqO5Cm/5//+vcDWb2wXZy5o4sTL9zVz/7UH/RBJnklqaenc16Xr+aiRi1kdc9XqtTmuqvJVYmaxzjE6v/973+/mNUdTDGr39XP/lRWP0YlrxTVv/1UV5VeSEPa8VWxzTVYfe/O1iZFQ/2JrF6bW10XKzCD1VvjwJv4TlJvhYONc1mbFv5UPZfrUuYarL6Dmb2E0//97//+z39k/38Yme3/yWz/T+H2fzLblcX/70qdRH1KLxis3hNlq0TcaV2LG+Lumlap4T1YvQCVrP7//effIWR/Zvu/ePN/MtsSRvPfmW1h8f/KbFcW/3/Xfb3lIbGD1buB12UDWZ8tf+Ig9W0cIegLRz/VrF7MXC9h9RqermT1/yci9Xezui5vmcHq7SGpHyHclaWZIb/UoSi3/JVtOmz1HQxbvQWrQ7H+Mli9C1KqS46MBqdXAALsnHdVlYauvouLdPX/+i+hzem/GIttYen/yWyL8P2fzLaw+H9ntiuLr9PVa6IVB6t3QC6fQPvJk78CCXkHWYl0k9ivHf4U0pAZMTAFGDEwGVQR9WD19siRStKA71+dNyBB43lev7hRC0kLRrx6AUa8+vlzB6t3QLmEPki9FJxUbbk32X5XN+qBuaWFg+n7LkBZhZq0bWNuaRKVid7G3NLW2KLq+Ngg9WJk4oQSLXh9o5aSlkwigeIpgs99CSJ0zAPjzn1kHpjidnFnJnNVrXHXQd5zf9Db62P6o4PTy5Ftq8QK0pe36sjZuIOaBe5GzsYEjJIQ6cIr7jrIeyyr77AKJbLC1Zdv2vI3xPbwp/TMXuiXX/0lrF7TOxXHB23eGGpWVDqL2t8cSO1Kc3Kaj8PD08LdtV672J1IaleMUCmVeCCD4jlc3+kpq9ZCMqY4SfZtfV7VKH6ZjV30RxXr8JluD1dPvEqE0GpGfpmidZyLVVP4my3rwMCTemkK57uaA09l9V1emZln/un2WM3ttdiJTTdyyreGPxW/1ap5xHf1eVWjF8Omuz3i+mto3XxkRYv0d7UWlKjOVMdeX/BtzYHXsvpk7DJed3Vn3BEFo5/5LdnOytAVvV7Op74DK/RimeRbJAb8FQarkoEXZOKaVnKbNIVWU8d2uas58NBfdMlkdm0HbXdt9xuiZPgzj4G/l02n08t523F0NXotwJoiCT+xXvVqP/c0wcSD3TkIdJFxprutZq9v+K7O0vew+nqPKUjjOOCw31SAcuz3+slOXs3bjqOr0WmpvmS7ey6vSZxSAy0lqCBEdc/LS/o6eKcK8nufdrmvOfAWVscVl2MMM70KJaxuHVZf5MA+tlEwnutl7F6FPkPTlFfVBFSuupCIC0zVoSWhN82KeSwJdJYPbLbGfc38rIoa3vbX8hJWt77R5Tc37PQqFDSXQVxQlwy6vJxs4M4DEVW+DPFN0adXQoqc20fb1c4VBSCooIfVa6K1J/s3ErT2X50JN6xMyuGHxsy73f2tU0yjoRYvDs2sPteGEhVpw9diJLMdStpo5nD+ma1pn1HefZ12z2T11FzHla0+WL0GJaOfb7dol5dztrjAckhNnPJd0UWCoVa3TWTZWaEEEvGmWXaGaMhriVcBS9SiiWDAqTP09UyMbFfbiDVjlL2/QbafvwykahVZ57RlRJTBMoA35y7ho+xFUVQr2vw9Rnn3FWAey+qrXWYVxPhtDnoWEhnRVrT+9Rbt8XJ+PtVxyncFmB4SNxvTM3fjK/YhXg4obZmagXhasqwRxfIKz2TWc04HClwRS9+Gt9hP7A81Pu9D+K3wlpE7iOKiJn/7KZIJTS8J5r4CzHtYHVaN/HUOehTWrL4e/ny9RTu8SPNL70n9vtbXPqzFqnX7JxD7X/yUyLp6weohaTK1MtcL/yqic44iN5OjZCFtw3fh/Mli6evPoijuHXRwrjuZ7/WJWf3Tx66+sQnwGlafaf1uHPQopDSt+3kq2r9JM8F4Wr+v9bUDKz6gPdpe65WeVAxgZPXYaR6xOlvlIoOElnZs1NM9nCjv7e1PeJ36xHIKbamIvsVkl/sv6wM9/Mg3NtUfyupJY/1+HPQkJFhd36+fbP4q4ax3x+rPDJsymsWRqYPrQUx1l7YemXSD1cVuVqHYIofWNrQPew97Dd8BqJQA48YBdPWiI4nrQxVv75K5san+FlY3iSmP3+egJyEpapndcy4GtH6XRAsQCaZPDFw/WN0lmhjWuoGkHxXmJLklz+py3iT6ij8EC4LWRvv0LXGv4R2ekaxuPpHorpysLh2CCDErVm9urN/ZVH8Lq6emGz3s/fwykqOf29nqrV8mNuGMCDAURvH9xywCoJG++Jk3NkpdVI0wJwkk8RTPkEVVdB4sOHkKN3T4+wq8oxT54pY+iaIUQxrXMhD4xLJ6SoFp3y53/pG8hNVTpwxWr0Gin0wkVb+uPjm0fZuCJU6dUWgD17+YF6EQBpX0RC3bGqXKCyShHbz0lvp6fJyvlENfwrj2gG2Wi8p6ezuW40MFRhQXktWN0UtZXU3hPdxFVEBTe+DWpvpzWX1/JuTd38t7YcXgN9W0mtpc/t1UcQRMljPvAJwwlR1RNI1Zd63tlyKJ4g6jY/yZrGnqBcpZXUlv4IMeOTDS3QE+XpZBj4i9Bnxlgtmoy8jGqbF1ffOU/A9l9ZKcjTd9J2+KEsa+A6vXrRi/jfBFV8sIGObOm/2MpFYbpzQ0I30DmTDEfIpDW/gYxisyq2s7dx+0D3rU4AkaQiseNJckcZNOYjGhzk7HjFRLYbTPTO52RC4n2+M6qBDBB9k0ZOKbZw18LavfgoGehBJR6w5t2jCZlFo71Ra4E7MXdzPtKMf3oGSjg9sRZglwc38wkdZHYa6Amc4pcNHGWnISdg5vETFcYQYCugfrJEpJPKN7TukYQKmgizEKEwNgnzCzOQbhcpFTnM/Ajwna2QP31l+ey+r7K9zd4k18EB6jaZlWQ+n4Lc8v4/Z9areJTvZM9ODsVg0UWLd2pj5o318EWREntoxp2r51PCtid7rH/EHUIlC4MbmNj7shrnBjAhXf9xqAeQDCpNpARUiGGMn45ZdTCObYRhVt1N3dXH95NKtv/nRvwkAPwr53+S5t2mgovbzN1tPZ3FZIq5dzO2cdq+pUGrGOieXy+I3TgTgjVjX/A/7vtHhRsxuzvR0fiyuyaHdIlRj+Pn2eYB0wXKPu7t7xLxaPZQq32fIAACAASURBVPVtjrkLAT0JJWsh3QNNhtIHTH7PsFc0hRjoB0YJTfo9WEvnIdyX0GJGblr/cgdDpazM3vYSfNQVtWmXe4vq05NZfYtlhv5yBLui1kX12EcDWj9scJHZ/lHK9CJ3onOrVRweGTQQfiPy0gnqZrmjicac6DWCY0FTlJYmy6kufAwtaP3mnlKLB7N6nmYGqR/CgzSt02/WaYPLkbtuxe42SabQuT57y9P9XtxAqWQKnLCrieMw1Wu4Q37ib8WaLUTrq9/JeVpvGIPVDU9m9Rx7D1I/iK12u1ebniXlZqNoS+5aoeOP+L2ynYC5nO/QTtw5ST4QXW/SAomGRiluc4tM2zLsKhjY2dnJvxWNY2k9cf5ZUn4CqT+b1ZP8PRYrPY58y92tTeHU29UhDzkwvxP9zP9akhfQRF2/bWncn9mQywOcaqC41yNvwtkK5WHw/rtunTZtdMpaP/ezuwzPZvVpNa19cPop5Frvhq164v1qFhuZA3K4FigPt6/eqq/FllS9hwc4BI/jBK1DC8/wBXg4qzOv4wsC/uPAUSTb756tqo6+nd1J/btgxd8OAw4+Z5clle4D/fp2eTyrezYflN4CiUa8a7PqY+x8mOzuD9DRwk6JZaJLcJj1noKD7Hzw9/YFvIDVB9oiXq8U4Jro7CM48nY+ZRB9DAGp4zrNBx4WlKrySj4RR+RxODw2vB6D1QdWgNDBd+cXHKrt7oPm61MAAatT6pXaBrI95afAeflwVP8OzJOsgcHqA0k8RNGqe9ke9WoeQrCsE+0wleGACsTif8BsmxOoMwjqzYevYrD6wKMB5VaXedareQw6EGBkT+l4CziFltNxXm2w6+LHq/iN3QOD1QcejmBF4y0Y9W7jk2A+KhRgEFDGX+DSKfrpnF3D1L+N4nZ53AhvsPrA42Ffz23Gns/oyOl27uOpG5hWs7xsdhsVCjC8u6CBgk4vYPXHhH0cw+7PAox6YMc2WH3gBZhfvvyKdHYmZ08tAfTnxIyfacJp9006HZo9pCIBhmEX+cw1ELZecCxIvfJuUp8K2uWJA7zB6gPvwGwwrxKgQ8GCcC1waoxOWbKapMlSsjpzysa2DfQpaiDjdPXzVXoAaJHaZbuYK344nTBYfeA9AJcni9Os2OyHF5R7SqgQK/28tR4sF5cZO6QaaF13YfWHctoBpNrl1jG92xisPvA6XB2VCZ8Tr5Gb3HJ6iR0TLAC0bWVHM7HXKyfBj6gvK2CjvCBU/4GsXvXCPiDkeuDpOJNIK0hKc3LyYtgrVDHyyh0Iv6O+JPCC3ux5rG55upSqnzGTZuDhKAutTCMw808mjzoszK8HCT+lvizxgrCfR7E62P9ZuQtE84oSltjddIT+D3zuN6o68EMIZHWj/QAetNZgNOCSdUBHo2NTPNv1lJAzX3340pUG84vqi8OjKDGNJz2CMbjwgGd1TDwFZLzbnFTzSwPa4Ib9j5OYPF8m642aEU3FSOlX4NnYcjSIHGNTH9pUWZbV2faVWBmcgI5XRWb+GZv/VAzN0lHrbvWDX/WJ3vE2eNIjWMtHWB1/hqCJwInS8T+7C08yGll+mhotwvVigAE/+lkeW5D41rm/Cueb1JQnkVidVHJNjM+n8DEy0C3fxwuCngmQPEVGkFP0W6ze/DBk2+JBeBSrw8SsPgmrG0oba7lco+AyHwBcMMwy+mD1HUhixkla1I18gI9xC7s94bkDBDGxibpZU1GkyjCdiz8VjWLaQIaHKCZSn/C6ngt3z0ZV/kKWhRjmBW7iB7E68XZkqxvNNKMnz+qey8moHKyexUzac2tpz9Q43LGtzCIWDX3sJx4DkRg8jPUQzMwGzXI2x8V+57xQItJYvZqZHGm/Gauf1A3W0Y3uvr/2VbeYDfZtPIjVicLFW8rSOWrpVm4xWmR1g8uSaye/D109C2oxYmr25xnxMWNT4192Z+AYaLD6CsLYGAzIRrlja/6XzzGkvCiX2tUsWP3w63iWi7LkneX7t+INRmDwM+LVP308OMeT4Aj8K5WLwSuxc1yLCAWTUwsm2uIHoZdpxMBsgkY2Iatb6tasaRlidWR+2jUNVl/DiSwfO0EReB+RoRGeZvt8QoI3Ln/k0lY/zOpnlZJ8r/Br0vobNCf/MwrH3axdo7xhbAjWHXzhYnPXRWzcoeZ3BfK208qpYzSe1S3BG/FZABmag9VXUBLfonyziBPU+T+RvUka/AQZo1opMKcDNzZu8Aaaq8AbJKeI1dEQRo3aoNUmFttEFnJTiEEtvMuGt8mODMDH+lbU5cuk7jqiKfxwl66G/Mo0mrHfvP3PAGvrFFXEkwCMxMIYPnfAgYk5nI0pJrpxIS6W+o2wf3RxwJnHWf28iy/P6jf5sV6ENwQ2RqxORjqSecDqNF2iddiDSCak3U48MrCkrpslmz5UL65cm5u5yBERs0jOomVBmxRxCmJzr8IX3Z9oD10Dt+mU7gFU0hcxiszqoJVYfjOrg+ZPIXWrNpGN5+3pX553FOINgY2e1W2YA4Y4CKtPRibGEce3/dYl7pm6Drq/9d3hMPWqgGjXtSQGDC2Yi+IGwakcwO5ciuNp/oxyx3hksCFCSVddo1PBPZws94GV1e1oR2x1+7Ywq2vrJAWZf+SC2lly13K1w/HUj+dlgzeEfrTAGwIbHatz5FrI6uAD2TqwuhZXHI8MlAsvd4GLhXeKVI2qWhpOXaeFdd0spjasa3yoJT4biVtAST6bd11BlLnhbSzfxgSlH2bY3A0gVrhGY92g1Qx2yU+jAD7KSCy7GMN4zGYM4C1vG8LxwMbzssEr2KwB3hAC41ldTRQm6HT1aZJ/O7C64VBzS+ZUikwFhfJpLiC26GqjtBZm2mLd6qda1s+QvzG4P4UHGh9M3w6cPoG7pon8n5on3l42HTRwl8j2rQKp2kM7Iz1Yv1lTJlv4+Gmn7ulNlOY2OnD0J9dANniF8tAAr1CiIlsdX375xK8iucwa6+rIPEYHtjpmQNJQGmTBFJ49UPTVUFYBCu4Q1sXepY3mRIlpdDDNld0GVBA0tgrw28Lpt8BTsIwLRDz0/R2x5NfuEvpNkRP8DS/MGv6xggd0toZsp6+Y4SWY45l4Wxjab/ASNsArmsHr6vg7NBC8mWxluSjxdrBGMb33oqtPk+jreHxvidgdgiii9YB1mdXRs4CE6EKzj8M+HoUJCrNPfGf2KrRldaCRAUo+JJLypCyet1X43oMPS/LTASpqkXaXGI61eSetn4ObvWmOi+MtRPEdOvsRgeYVITDL7zL3Djc2s0h+IRsS2DUZpBjZ0tXLK7LDRxzjE9rSSI34bxtWZzep/DOxAQ09cmRxABFb5vYdtH2UEjKFopFlqruUyWlFIGewtK1nda1G/pgcePZm2TeUxgWsvlpa4514x1Ta1XeZYfXGxfp8uvHIYJLxQe7CGi7cpnWya1lzmsia9AlmzrM6SSLklDCibuEe3cFypWcgVgd2+UDgqdjjjD2TvKy2htPKeCc4u0uoJoPVk0AmOUPqV7D6jySEeUco0FcHHDkmyTNMyzEDUboMGET/JYO1CesGGr/EP/j9jYc/7A3RzlvqekcOld/5te7XJufJWFXCsTp3k/Si6GPi/k8AdLFClsYFrH5GIHoQ3jGR9rsyUo7V03sP/aryRmgQNeMjNyYnK7cypa/RtHiw4Uc/TuOR9A/5+jUTtchdogMFZnJe5/Yu9wGHK1j9NxLCvEJWTz8FCK6uzRaOVmdXW7iGdbvDhwXJ6CAYIGxpWu0SMKCtnnCX0GSswerdcAmr/4K0/pL4zvV3CTH6V6GwlKex7HdQ10cd7SdzB4wbJkTukhED0xktfHz7rP4D0vpL5mKtvaUhx/an9bLu43QlCmTjzn3Y/QY/V49+njf8eQzGLKRGeIesvmL15Rvbl4kc021T3vlK7PUanQcn1w5+StGtLlXukoHzaBBl/RIr9STeIauv49VXZ/TjoZjj8ozXmwoDsu3Cu73vnyyv/yCr7/0HajCyezXBWwYsMasnX9Ve7++KeL5kyC6KbV6L3vdfliY5yzYn4J4f/ewndbjd4OS9GJl4m+AtXVvE6peGgyTe9xQFNCw7/Ry9O5fUY7a8/+LWZV6RFs+4dYerPe6/jvN09H5PaAFeIqt/j9XTL/tqZ9OyUzcr3de7zEaFFXpFLvCBpzcGuuC0dPCO/Cdn8ZZGCJ9jw7JrX3CZ4dzabi6uRrMSO99/cdt1p9hZ7imqx6D17jhrapc7S1/sVn2LrP41Vr9J9FuGb5rRUCHttSqsaFzQeyRyrct9AHFWgqmQ1d+r1bxFVg9ZfePNaz99JFtYb2VraUVmzurL6p1GP2mKXbkNmpZZtm/QemecNDNrLi+ZjHTpEim1NtJ8epplXtNflbF683cyf8NIkG1c6vqmJdVoVlj7+5fccsXqzQs+VI2BtjgXw1KV6383IYztI07loKyBVjM+2dLWaQ6shJS0yt/jW7gdq/tutNuMoJJqPI/VL/WKRPdflDZY/Rs4lXurks92EsJQ/gK4JKDEEJ+DyqwOaFYrfBOhp3IsvEaAuTerx1eUV8KvuuEvSl7/c6x+wejnW53Lr+OMfFDJZ7C5wKojzAsEDSXrA8InXafVCt/yqIle8C1xjaWs3lztLmH11QUlvICnGO25fPP6jSWXWvwir+wni3qQ/qOfwerfwokMX9Vpu7biYDzld1tXyK/06jlbLek7fZHPEr/qBd4jwHzNVt84tPLu0UTJyU1nJLPb/2HKtp85mbj2x+k/XrsTFqVvdFYtHnnrHq2btOTbOzHLNdUzwLRsz+1qFBc2cATHTc2mKXaDNbU/fSQNZ2arj6cvvZJaFtXCuoCv0moVkPcIMF1YnXg0YmBc1a3MD0rH/Bm4xqkJln4AnhRvcP0iXBPUyJrHsqj0RKtd2/80fbDXO1aXm/8Yq692F1cC/E/e+D6iLmxyGOt9YY7amk1tahPYwLqLBqOFmfUnKmtLFgJFVQlqtNJm3iPA9GB1zkHCC5wBr6gJkWm4JfaQ9e3OsOsb64DV6ZbGsAUPzPlE6XQGr8RDC9dpS+x0vfZyO5e19RQVj3zgHl9ndTBTUcZzGg35IAlH6snrB6t/DweNzZNp0+fXDtczVGQzqeBuZq2K2JP9j2k2FoIf1mKDWdaukWj8/c1soGviiE94e2Z1Xk6ef7D2WiSOz3zUkkVg3Ec1nV4lwJTNQsqxH8h/3js54UqgZDxPdABplSje3zBjPhIRR8N8XKU+YHV7e6ZvKoIWd3ZrS5MAwwVjD0CdwJSI33oSq4d5HycZBBXdT4ZNbhv7QWlMOoNWLKJeUv7gafR6iKZl9/IwSPvR08J/sV2NgW44Zm2e1F8szVpCViiBRLwZbeC5lnm1xKuAJWrRRKKN+RwQuxosXxtl74/Lm8+bGn97KrLOacuIKINlAG/OXcJH2YtMqAnpWCB605zZfVaH7AFvNaPkIWII8Su2ElKH5WBNC87vue3ABp9qHWYb5GWWhdWBV63XAasDTOFqzMCszhrMMVa/l7eUPAbUFdIH1rSKRK2lpmXHLlpYmf/yf24MZIuw3TGPuQwvc23bEztZQ/HIRrpn1+VsPsRAVxyyuk8vRzpb5Pgb+ViWjM3zhSpCPA2sgBPFGqLhaIPEES3kb1l9cv5QKWHeHT4ub/FRKUPzyXwvFRL5YiTxIgFmn9Vl/cnUgfmIsgQBJpA7HKsrHgchvWu36ny+qIn6WjunwNvy9vbsBWVakf+IZ3j5NH8aqS202BqZpMT4Ua+yU41WFHTi/lE84lx7TSMgJy3xmnG7N3RZE4MmxS/JsTW1Dxnf9Mf2w8CnYc8pK0yjm4JdGBlWH7b6F7HyAO7j/BrT4qdE1tURVUYsKtQKwuNBWHu0wZQspG24b9B0nVj6OhJgLMfTXh2c607me31iVo/Iby3AGL0ijHrUzrqRwa9JTQwz0V7OiKrXr9ZuzkaYjedUL4ZG8ESUTvROm1Noq5MQgrxgIlbPLpdjGd0yu+MgNtyFw2RJzMntpXYzfJprRjnu9i6IcmG/riryFVYHF7CDLcmb3DNNjnf96MdTdb6ftHKlCadwm1BBAeo4HX1jEZEFb+9NpdNlLJPFrL7/xIPVL0A1rZ8hdZ7PKdSNrB7zuEqxKMsgC0sblleJqR7Y25/wVPWJ5RTaUhF9i8kuUlA0dognKK2dEkrPd8s9eyGqJ74S186kO79pS/fvvBcg8AZ8CDiOiU9dsPq6ePROpNgeX32y31joIBIHGqxT/Yx8WLF6VoKxj6N8wLmPW9lUqXenPCd16Ly3sCerAyRbGlsLA37IHpbYHvIWKZCRDxEsjn68QyNvq+PoR+mA/9HfIE4KIC8z/gfohaARF/s47LdHFXEaFxH7FOnqO0+8d2igFSpp/dyM1EjsICZdsroKN0zwr45dncEGsn8wWTTqNbxWr1ICjBsH0NWLjiRmdYhvsGw3pVcO1VpUT3yV+biKxx3RZRy04+pkmNVxI+6UUmshResdkOW8rhEpM14O0BJVPhmRYKP/IObQRNIpEELRgQBTuC59/fL1HAZvYEn3fLTydtlSEju1Si9TZPVu0UKwu6Q+Ed0WxOpsq4tFHbFqtp9ETSvqKJ16Q55R/yVNTupyp5HblMdEwMoWu03jZt8Z/Yx49UtQResn5RcMiRTmpNmdeVvdCR6irwSkstjQRnsrNu41vMMzktXNJxLdlZPVpUMQISbH6qvoTmzHczRQP/FVibgU6UbudhBd9Im4K+Lo1bqlS+jQzFucKtoGgN9kuvBzgET/XgS+LC3nAKthfQesnnP9bI2KWe8MxyIhcLwDPnIHLWYc+awVmIkYfZ/V7WtgZmb3Ay6ZeQvb8eomWcfo2eLrd0StYapfA5MxDBM4ralb7hXmJIFEZXV1FZ0XUSosCDpinMA7CpMn6OkTRymGNK7F9v8s6DGvwKwM172pqvuon/iqoifNCFjyEIt+KPKUL1ndmMWbuvtyr5GzGpfMGXxcc3xtoVVY8niwvWdxVpcUlMC8F1nOAVz8ScTqk+NvPu4+RApMstJ4mu0mVPCrjcJQ89jvW5fHKRAq41wfrH4VoDBU0XzKztvCPIKM7WCdjYH5OF8pR7tERO439CIc0tvbsRwfKjCiuJA9a4xeyupqCu/hLnKfV77S841TP/FVhlmuBUzccWn5QOORBYUEc3pXCkyCGXpZziHhrY+VFQriLwV3n4IrU48klEtBmkWFF9fQKT30r8rY6kBztVi/mjjMh+vLQT38wcXAhArIstfkQq1Q38CZv4/4MVcHL6jBAGLlZ0uf1OAbmS1EEXbjuENCQGYu1pB6gXJWV9IbKPcPLC6Cj5dlUO6314CvTDAbNRPZuPKV5qTwYhyY+Oo9BlwxSPSK0kBWVY9oJByj7XpLG8oR6RvXm3Z0VTgHVSQF3GX2yD3dT1HPMH/vjZ93QXEABzg26wqF3FY8GoFuXXNcYm6r449oIAFImw0BTKPcL2ACtrVYKCtUlnGsri2FzQNQR1ioKoYbwtag5R64qbzEYkROkUdwFIy1mMcPc7nWHJKT7XG2hiMXbUCDUXPNdpCVgcJxsJv3yuqFe4ejGbGTcwgcmPgaeAy8Hh+6F7gYaiBFrlJfSDjl62vrltJ915J2eLBq//rWU7rmG49pJ6PtvhB1WD8gpH2l23fJ3DuznWjVYlp1HvOai1KPKXsoNnKQ+qWYCW3DOjSq2ZoWZKN71SfkSiPRhpaGZgZCv//MThS4aKvAa2tEG/ZEGwwn96AodR9G6aZIiKbjH8bYuGhMDIB9wszmSM1c5BQHtQQsuNCocaKs9vY7Ph33WwbVFAmrjGfEWnPZP3PtxFc35TbJ6iZkde4iYloPhhdN8sCsXI8bjsjFlRvqbYonphzBldxDLPqN2kRuxRZIPn7n0U+20N1vMfy72igoOHlDpQtuMNAa1peSHgWbfAB1PSxhgfZuG4gcpGxmO8mA2B0PYmyWvGvhhvU7+bA7G4gOxm2GbIlSpg5dRkBFiKEswsfHPXAgU0QVXfaAKanGifVq0kZ0pGBGLIv6uOvIxNfPitWngLS9NB/oMiak9cBpEDgMNtk3o5JUIXWHLWUglBB2a7gFphca92zdxGg7nmrIQKfGG4fK2+hId4ZF+UrtGu4bBQK+loPUvwCc+BH/mme7RTU1WyxDxT8MHcjdIozwP/FbHFtcuQ31id3vsVTyWViFUcyD2wxvF9BkcJvlY6loxKH4X8ltoE10hKPM6RqJxq+e+OoiXwLWzrF6MIrwvUfgqHbPs628Lt/oUls8f/JOHNwUHj1r69HlaKLsDR3aLqNbzYPRGeWdY3RVXuBZXbxL1+s6p07eeszcfIeBK2BTH1pqt9BKLYIGGyCRltGJMWp1qB6wFT0SrckEZT8yL8EHVL+6NOHmFVafqVmvzxJS9QJM7cTXkNUTtrpJ2erRRpLV99gi+FhK56t7BBdyFsC9C9hKrywpeTMyGosfs0WRZQOR5YFC5K7feG/TrF6H0F8hCe/zZxucMz1Y/ZsAHILq1mEACJ2IAGS5o0na9kSvERz7+EnTpWmIZZXsSLdZnRRo7i4ixeWhETlHL+xxCMMwqye+mjWrb+rqrnreo+EqLR92ezqn2B7h8+g+BPUpkFtbTkjKhokvqteqvF1NK2XzgtnvM90JJnXWzmAkOfytB5UMWu11zRzseKasgRuD0uPG5MEJu5qsxZHqNdwhgU3TWxzSQ7QeGhproyPoS7wxrEQx95Z0xK7K5YA/NPHVj0pCVg/cAHEMjEBvsfr+lBPhkZ3zikAD8/3RYEs+MEoWz9gusVmBO5VfRv6Zav7Db8THTUqs5+Y1yxyLp2Cwa962BwajvxmGk6ovvmRe4OA8cnPtJ0z7R26CT2WEg6X18PxEtkYd2ciuKqTjBkpIZI+HzukDE1/97cJ49fCWUby6r19egSkQpRIzS07AhB7wPJqazkW3a1fi7kDE283ZCZlFxUhaYoyy2vkim3XMFhgxtNdRDlp/LzSOf1vZ5WuYkvH12R90InI/cJZqL8CwpS3PGtnMi+7nyMTX0BhffIgKjtMP6A1vaelKZ81gM8kWdCWNKeFKVi+KBoRN72ZNYfbX8tH7s41aalq4xkmZdDfwajRdz/papFa2CzhZuFJIOAorjFSW8Hd+ZOJrMJdqJw9MWJJ3Sa8jGxPrT673TA0BScu5ZM/ZUhc7uj1mQZRLJmHkwfLQrtntKAtDBYpKNKZk0uqg9R/Acx3iCTdrmEvRB5WLTuLPyk2PnQ5NfA0VckkcTMoNuWejnI3y3gUpOgO2FwVm+Vxm/bo2fznXjLoW4yjiolmJqwLXs/dbkVARq7cpiu6m7foY+3ds+/pdqmkN3BYnl7T+HlKmepjaCySekZ5Px4QPLqgGp0eBkfiYAxNfg76ECFy7WBkdHFecupInQLlmD7sizo28+EowMeCyD2v+dq5ZfW1qAjQMhEmZ6qsiGz1myW2aEixa/gV37B28ub79oPUfQC9pvTdSEZFRdjS7LpHRK8ubzlvMiA17g/qJrzrUfYzL6uCGAVgT3otLZkSeyXV2rxWrx6uMTsmTTqPMVrfqbUfzuWY1n1NlJcSW/i2aEFwaSjCpEhN98GD1gbsiZaovF7bbmBuSnR47HZn4GnYKwbXB1M1g7zKgb52JN83qi9f/O6zuVjFlVnR/NzcguZGItkoITX1YHRIa9AWsvhpx0Qihm/cAU1Lu1mpg4B5ILvPWIPH8dGTi6xkZK1oD6/a2ug3tUDyF0XO3nxS13IDkBu9KsHov/+zyNjO9fqGf5LUl45pMQbak1iXCtF5EabD6wE2R1I2ql/RO3vnIxNfjMhZEesbtWd1OWOqnwCQneHYpyzL68sv9EqsblZ/bUV3g+hF6aVoDA62xsm5wDeoGpvrBia9HaT0m9QyrT0lv6bECN6pSxOoplaRdgWu1uw+r09rR92B1xZPxgKQ5kL+cyt/tijeik0FOTnw1Q1e/K2SWi0kEwOJKiKmtx4YsFmBFojaQpIXf9/jE10M9yvIqiVdfnvatyMYsI9REdkMoYTunRCI43EQLmfD5paXs1WFRlCF7feuc5oWmWR306fW7fIEFw5/B6p2QFtJy65ayPWdj7UAtRQb9md94Z1OaYJ0daJiM/W5YSy02PLhlCd/JgZSdW3rBu1kU6wz+Q0kNyKoMF9HmtUB5Imfu/jWVKsK6A1lHUX5PV9+frXS0xERKgsHqnZBeun658CdDSD2Meg7uhC8O07pWdj30I7T+rB6gLYHfCDILqYhgU0EkJ1A2g0XyE3olxkW2eKco2+J4ChK6obyjvLozjTygZPWGXqz+tRiY9S45sSaXfNQjSk87rXtaK8p0f8wBgkkKtum94Gahh+TuLlF8EH8cbrEivrRcknhU1PpjZ07toiK7l42pbzs6KZptPvOSMIV2sSxC9pyO1nK5QfIWi9goIB6dOyLQrCeVLBnQi9VTI4X2S0Sn5+bGe4w/VPqwNMPJi2H++kRkY7fhz8AJ8KsbZBOJ0sgaPmpZ2eeB5S+uYvmLJyWEeVJd61CeiZfW9GxVrjPA986yVGw0szq56MAa3cZTOnI+UbrlcMrurGmTWB3k+l2C6RbInQI+TqPy/B134DQtU+aH5sFOEJcJPAJKOkI2Shz4HmQ9N+VzSUXL00P8AeGUHKhwwzwnIcyjxhV1qFg1wyg7HajFKyqey92b2eM2V3PI6kLTE8fQAXH1fIyEFkzFALSpDec+uJ7VC+5k+6OSzC1NC0VZ3VB356IQWeGSMRB/wtOwDbGSGjNCGhoDuW9gZPd6AtbpXkP13X+O5rz7zyqp1GdKesrX/ZiK1qNmhTtDq8WfTLQeJhPfLRTD5sk0n4jVcUOT4ajZKp94N7g4e0s2GsOzKIG/u77gMRth/1bGLiTZ0r/E0Yk759guz7YgOZZpH7CARX+8nesscQAAIABJREFUcEWNj10P6Vi4iafx9YPVv4VgFi+uYQfRXvKIgybbWTKbpFfU8XZ7uIhyIFDoCmP9KSbwa12lU8Dq2xoMGM8BU7QCTw3WF27fBcjtacgLSsxt7XbSVlByB7bV6TTDjM6KAbK6QTIXXX57eNAyi2LBQAQXhGom+SDD7n4tJFbNzUKsrF27An8kQqDGRA5n7QXQU4FTZLGTVfSLKFwacaA1jPn4BR2MMK+ErmhctwHtBtv+wYrKidUvPZcrb8HrwN7YWj10hbajz14w5cOP58E/2zbdrZ1uvCJl0VcIi8XYPLZoFAIPJ81GkqAWkCgO94dtRjLbDcfH4PJHvJOv3ybbpgxUIC/Nb505tRCS3Mk5KXfXQnLdnnbNRvQtH6kBJzmNjPZA08LTDS8SVlD3weq9wBo5uKXrgfZK/lY7OQV4CTp+z3VypfoEq+NUtXDRzK5P8gW8WH8JWX2L7zJHYInig/6sPK0DKyv+dtmniFKs2GWWUoEYPnRjs8Rm2OE78LbyZgvtlxJdu1eoC/QUXZ1EcvyP9C6g0Q+fhnNiDfbh4qnQvEHX7zjaB6l3A9OuBLDQpjg8zTwKVMLHJsnqfumcFasbmhcp393G8qEPxZv1l4jVszS0S0972Lo0K8yK7Vk2GAhnO2cWjQN/PFeZkqLKsTMscOMM3qyl9swlu2Mudi9LDAy7P7nR+JBTtibJJsATBkgNAxcDA7sFDlbvBLeeg3OE0joK9ErPXK8mF6sYrIRZZqvTRX4hzJexejIB73sQPV36FSx/MQu53J+PIfDpQhuur7m698nHrCioqg5lneHeSdu96OQnJu3Eqwfzl0hoX49+pOete8yBNiDCDqMSMYLArY5GgUu0rr3wc1pXVwGrBwJ6ECbzNlZ/TvzlIazyw2eViw7A9UMSCbbIk1gQh3i03Ksec4uaN64pQ/YG2f6QrnFxMtuPHITTZHwi7vojjzlwFmvCto39iZdF+/BaaTLbsCIGJoxefxmr64fE6RzFciSyoItCm/vgu2vTTClIFmoTECnVzV4/9JjHyqnYvTqphswJGAKfbja5tvBRl8LOTlUrdg80gbA4K8Q6Mt2Zx1mlMUFA+k68esjeb2X1l+sva1ZHw0wIpDQ6I2sdbtMQoEUuhZq4UFCyWkYfLB6zWzGppunHdrafxLliqZo0nvEU3TxZ4iD1jiDC9sb3hxN0SUYXfLGM/CPvuTPLC+aWhpNLa0NGKnLHXI9Xx79YpNO7ldmFDlkN3MBWqJ29v49dcYXyHtUulDtbfnnHdaKUVbKrfh4DyqGqIVWogdmaK8mEcwiJ1GU9H3NgKauznq5lPXof5kgWPchVLg9M8PXEeWAcXJTMgcjGGweZvDf/i6DJWMT4NIDkQuOP+GJnpzvm2FRWhbqEFS4wJ6OxQEHyG0R+kuhmLwR2EXKZLxoWaku1iXz6pUpdPeYg9a7QoXDuUgJYftaenu1RPXnaXuZs5Aztcc5GUdu0I4eqWUhS0F01m6dMfj2BFqwuSUMgmHmOwXAU0pzrGfMuNvpn2hFzm+Aa7nH6UnFkTy4B+s4YKsws7zQmodv53ew7/KHHNBWPOXAYTkC375fL2TLv1RCZ7KESMzk6V2LLy12MP4ucXZRQiVCTMUBw14Qwd61XSzRidUoSYgwn2QJJKmKPZli9ZM5Tf869zKKskrR42rXv3ib5RGHj+UIWTxRJaaYzqXOBw0q/AsF0UW38okiLDAFucOaT6cI8mHNLAavwLsLdmlbbDH5lB0z129rEz1rY4xhasDrnNZf0WvhZE7VP51i9v7F+UwayjSYpFK3ti0m5ZOGNDed0bj+Nuk3NOhmHcc8WfRuCtTEia2Hp3ZB/A2s7HEoFr1qwc5G0zRwzb28ZP/h+UX1qy+o07XyixImYcmtLgSli9e64Kasb4zQtkrXwL+Y1m6bVSnmC7MO8cvTz26hdevYMxR5dVuGGyvpNBxCN0YjVw/UrWGYHjsTI+P22Z9M3qFUR7hp8p3m0w4IWDny0iOY5Vi8b/fR+4Ju26NtQHZVyPCjlxuEstfgFUX1qpKuLmivRL5O825CIsQsu2rqh32hQw7KS7gPOYs45cqmP1EFOxeomvVDUummTvgh2tS9T7788Ss6D1B+HzrOs8h7CYlbvGk5xUwoCb6sbzA5vJk4mv6Wrl7F6b9y0SV8EG+ByRB7ORqNtl3ZDHeUobhtt2RhfmztbrsD0/CZuSkE0+oFJJufi6IeSnm/EwAxW/xEo9SaqvQ4/4Sm1eACrf6sW98RGgGQpq3d96Lt6KgZ+HreMyemC7+W5uUMMzO7ybDfEoXZbBrG3rFBxJQZ+EbeZkPYb4S+IZ7B6rx/GuyioWIEZrD5wGe5iIf+Kp9TiIawek1I5y0d6hUsHHiyLVHqjJ+AWuvq7mnTgPO6hZv8SqX+R1ffywGR3wfYaPtF1hie4hncJrn+gALOBO7D6kNUHFrgHn/5K+AviGaweGuebc+an6DycGg0qsMwlpsTwFPraOt8ax0c/jYo5d9+Bl+IOi1T8FKl/k9UzDLDBTZwPcnITViVVCscA8jadRhlpcM4GJy+UJGSO1W/jyGmEgowByT01icckGY1c6G6wU4WB38X3pfV7qECX4busnrLK850q5pmhRLPE6kLTnCqFltek0zAzDUb1zrY6aJqdielpwuulHmV1hPVe4Dm19yCznexe2XOpayy4P81rhWDl04kTSXp+r6zzwA/g25byj5H6V1k9RSVb+QhnMolYHYlbEkMi4xhOPGNwN+CPSWtJ+q4nzioZrvPBBn+m0EiXZ9lGRgMTjx5sRXS51t8TmTpsSTPAy1UZ18WBXCE9ljvNcEeJudzYP2E/4z5pnIGBm+HXSP27rL6m9Q2TESgpSsDqWuibJ0NTqhRO8U6JI3EnbnLq9ylgdRHX80Xac90qFBPRG44G+Cqczc+rUtxhRbd0HTba1GYk4H7Rd1M49qEBEGaO5NNwXES9p7Yto/FcLd+AgaCoA00B8YfRPww0ws+R+pdZfaFdbMsARrkM45j8l1kGOZXyu2P6XyR/YKWATG3bF9DpRjKpGMcbxNpsjbICTwY8G6ZKDFOiNwNI5nhMATGe3lzK70KktZa8MINcrd1oB8c5hpwVBjO6a6AkYxNJXZrHRPazknYW+33yw5+NnjIcGoVRSeBcJfa7wQyVg9gHzuNF2clK8XX3NETYOpPG/RIDw+5P+o9X6TSc1hBcGizDyVPo7Cm43rM670CNhlfnI4XeCF2xguOGBsLqoDiTPJ55i2Xd1m2Yb1Va+06DDjQsENcDsbzW3K7YV05egJmbQ4nn1LO6J/VcmYY7CamBNc25yTUPGXDlFfoqb9CgA70BuNguQzd/i77vqr0eX2f1kNe3z9PGCb1bpwYm82xamhXByPUuZl1kGlrzg0gerzPOMEVDn6SckNXZVp9IAboFqy89t5utys8mCgywi9kncafRz+R6NSJlNuilt5u8AgOsaRlXtIx8eFv8H+xmpfWyqLskFY2GQkCjn5dFng6sMP+K7Gp6WssSu1orNe9o9yr9IqnfgdULwVwwTdtzSyFkdWNSVAtBBng224nOyeKeRKE3LKuLrAwQsLoo+z7S8h6sPgVxintdJWX7dd5SXm+JFpNmZcuIm5TIW0JLjV+gKfC2cmlsdbMBzjI9jQxCBUdLrKmiGFTM04GsridMQJxNJD/wCsyMnuZvwCNNvnv1i6T+IFYvnVNaqMbCgtUlPIZ4zCn0JCsLq5O5LqeDkBtsLfr0BRRKWvgcdP7E+hTA5E1u6fv4NHIJc0cAop6Av951lNKO5MwghZ74nQc2uFS5lnZUk2N16jQ1FgS8JvfAOwARwcJslG99vTAT+/kX6vccpYgHsbpFu7fcRWsY7yzlKBCQ9XqNi25x/wl9ORkH4EYxMB5FE4tEnto52UcBWbLVCfOKrzfifyZ6Br+OLSv0EHgqRNDyrO4VmImbc7D6mxBQ7MzZ+9+tqV2bdavEn8LDWL0ZIlM9B6MTkRj5iJJGVbsORdS/eLKNS1aeCtKrnJbuxHpgTwXr8or6Sm04QMb2BIPV3weXEKaI0+XEE+V9e/LT1/AdVnfE4BkCPF+whw21js412IjWIOd8yjDNnN2mYhejZV8kTcUxkhjZz18kK/S8tPYUszoJ9nQ6jojIdWtf6naVG/g+zIf/Kf9eZ14/Ss1w1tJ/Lr7D6o4qg4wik+R4YbUDRdhUoF6LCvhupcXdBixiTYv1LPrkvNOgvS7vPCVgwtNZ2LIX3krTGjgPG5ACSlV9rbXnu+tukSryO/iSrb78wJM+OeCcdW0MLFmzeosv64FyyRG4xhJi7fjYfhbRZoSSTkQkZ6r1I1/SL0EZU29BHzLXzQ+T+ndYXTIt+ug4npvCsYRemk3o3i3e9ffxhQvt9h+AJ/1Pom9gAEvi2ds0hu9Ats8aU0Z/GPA5YnhDvbqujxn4L8FXWH01XVPS5lI4G7M65czq4TB7Ia+sPRUcUqg5PAen3Lro8vS1TSowMJDDAXom1Iad/2aYusN3WN2w3CKsDjphq08wWL0UMo9TQtXJ4WgHOwq4IRVISoUuror3telAa5zwX1bZ3r8b/ML4BquTcU5k7uYZiq7Oc3wkZDnJ6icZ5IUE5KdrylRYnORD82Cxs6ScNRo6zZZ6YZsONMYBST28uPgX9tOSOuIrrK5lVo8G95lj4aL/cnN7zlHIGwlI1gUJWN0kWJ2ykHWIFxxi+cAeTpJt8eW/LakjvmOre8mAcz/xLpg455NkYcwEt53hkFcSEGg/mVO8FjT9PlJg2F+RusHJ8l/YpgNNcdqCLrzBj0vqiOtZPR36dl1w2ysJSJzPwX/aZdCVxIgb+WpOdnWvbNOBlmgQPl5C6z8vqSO+wOoZ8/uq4l9JQFqm5vKUTiPRoxT0wrnoN4Y/p5rlnW060BBNJnruZ9Ud6gvisXlgDn577ySglE85EZcO6f108ETp72zUgYZoM3t/h9bhV7N5LfFcVj82jfiV/JPO7J5+1qFpDVyPVnS7eR8zDHXGY1n9EJe81Kr87lO9s00HGqLZgkQb6vww1D2ey+oH8FJSb4SDjTPadGAHDRNtmZCwwpyep4Lh34Y3sHqw9M9eDpKrqvRIHGqe0aYDe2gZl6IDJleOvY4mdnwpHs3q7P1bIHv2IKAdHNK02ldj4F1ouyC0t/v1R9LKHE/C/k48m9WDpTbcrvxaRYOAylG28Olo1IFdNE50bqSPgM8M2jMU9RjPZnWTWMooQ0WDf8pROPgZjTpQAN2Yc0XPUZbV9RBfEng4q2eC90qitwcSCPI4uD1bC5WOVh3YAbSmGCBj3XwQQ3xJ4Mmsnl11J7GC9KCfMqRIPMfro1EH9tHaVGdjHYjUPyPrSwIPZvVyx+gg9WKke8pkA45GHdhHh+VDUVnXzOoPJrB+eHCjFAu+g36Kkev/kgZ8/+oMPB7tTXU01o2Q+tHVlV6N57L6Xmz6FKwQNFCGcgl9tOpAEXq4Mo0mV+kw1jN4bJvsx9zZb9+MxY8rsNVWi9HPaNWBEkAP3Rs+AakPY32NN7M6qI/OOVQHEthsUyJy8B8HBnbRQ4CZQkt9GOsJPLVJ9nkFQH8+I4d+BXbalBYcNMNQHyhHnyVErb/UrhegteX38Y4v8WJWx288tZj1QBK7TTqfYJQanD5QjC4CzCIGfvweV3gvq08GMb7yUhSwuh3+DMtooBg9Vj63GNNJN/FQVk8E2q34e/ThdSjoJ+3wZ0z7GCiGLrYBwNT4wMrv+5N4C6tbjW15zvjma1Ay+tFKjawbA+UoltVN3UTRXmOAl+AtrJ5au3Oweg0K5hkBJcm8qkYDj0cpvWhlKLqh8PxOev1b8BpWt9EZCwxWr8Eqd87aKTEIfaAKpeTL5+nyKMWH8tZFeGjrJFhdD1v9DFKeilWLDlofqIEpZHXWU+BTrNj0iZh8C97D6msOGqxegZSmNRzQA6dQOwep3FYf3p0tvIbVExw0WL0CRf3kYPWBGlSyOpTP/h/LH23hJaxu5zsOVj+DBGGbVfzYYPWBGlRyb8XpfTIRvAVvYfXEWneDgmqQaq2VA3o06UAN6nQSXXH6YPUtvITVj54zIEiuizFYfeAMaljdVKV0Gay+hYeyetGcmQuq8SIsW9SOfkZk48AZVLC6wYnLxaEtg9W38F5WHxRUh4K1XkeTDlShMlKlYhrSYPUtPJfVCzIMDlSgoL1Gkw5UoTb+sHwa0mD1LTyV1YvWQhqowGD1gdaoXd6gfBrSYPUtPJjV99d4GKhBSSbeSyoy8BZUR5UPVm+Cx7J6yWrUAzUYmtZAY1Rzb7ECMxY528JzWX2TZAYBHcDu6Gc06kAV6lm99IKRMWALD2b1DRYaBHQEQ9MaaIvS7F6yYosuz9k4fowbeDKrZ3lmkPoxbDbbaNOBWpRm4lUftL1NuQX+aN7qjme3Tpq+B6kfxUbDjZWlBupRSC/aroOkK7TysWrGJp7N6pjVa73rK1V5BbJtNxp14ABKje/EEi2bGCvcbeLhrI60DtnNgVqM0c9AQ/QKQByrUW/i6azORB7g2/V5OFItOFp14BiK3aWVGM7STTyf1aeQ2L9dkxdg1YyjXQeOAvrwS6fbvgajeQaWCDrI0VcOnEKf2UJDVt/GYPWBNXBpKYvB6QOn0EdYHzNLtzFYfWBgoBe6aCVDgNnBaJ+BgYFu6GFWj9ReOxisPjAw0A09omBGBMwOBqsPDAz0Q3sK7hUu+R4MVh8YGOgH3ZyDR77GPQxWHxgY6IjWxvow1XcxWH1gYKAjWhvrQ1XfxWD1gYGBnmgbBjMCYPYxWH1gYKAnmoaXwzDV9zFYfWBgoCtamtfVC1z/IgarDwwM9MWnmQbTPqLmjXgcq9dkJhlZTAYGboBmsokZ+ksJnsbqM01DbtUUcKva+nMHrQ8MfB2NTGxoZ/S/Gs9hdTS8kdGNkT3+jz1kAA8DsTngSptV62b9KKqaaLTnwAG0kcOHqF6Gx7A6aGM0IKEDfbeUJ9YSOf6dT4D5jMnmkKU0soZO+mq174+aFOoj3frAQbQg5EHqhXgQq1veZlZHYkHb3ABTOv43H6as4AZZ3p87kAUOb9IDWxr1xNu5cwcGNnE+an14SkvxGFYnng5ZnZgcD01kxrPFDhMy+mD1HVAHqJGpqUVFvJp4xKOpb8TxkJF14EeLDhzAaU18kHoxHsTqEyorkygwyDtISTORazxE9jwwlw8FZgfYFRpidXzjbPsBeieM/EcjIPtBGWH1YawPHMBJWh+kXo6nsDrytveWovIiCox2FORsdSR/YvVv1/y+wHbDJSAdq2MzEr0bbPD5sB0i2Q8wDVYfOAE4o4urQerlEFbncffk3GG8g9au/GIFGZZnJqcFuKBF+QO8y+2x15iNKMgBpu6Q1SfxR4uRDqxuAXH5YPWBUzhM66c6hN+DsLphYvQqB0qqgEr2DWhdlJSaIIwRsLEJ4m3R1YH9zpbQkd3xv4kCi4DUdBi6+sAp6GO50c1nkHoNHKuTYWvfcVRajeZ323hnWjt44xqErLH8/MjgifTsng2m4MNtuhpia46BAQZ+FJa3tjrvmUjTGjEwA6dgjojrekw+qgOzOtI3+RvZ1SisjuPt1uaZcAjPG+L+hHx315GelNOHdV1AiRHVmlp4blK4QycFrKRUxqvfoeoDzwWoWjIBNRY/qgSxOrEqaaiTDyzRSPfQXko1KNJONDLgbS3OzYuMQZp8SqxLngT6gMOTBtRFN4NJogftAxryQnYY/bgRQTwy2GBsF/M5MusMXIlKy3sY6vUgVieG1YGtbuUQH/DdmNVRqpW4CmR1VHAnlgNqOvPIvq6b+s62tI/ZNhjx0Yp1JYMBtqoh2xho9APtY3OcpiV9FIaw4OgnK2q1rcHAQBlm47v4128+w41TD2J1JhyxnqkdjZaok8asThNamNGNDzkX4baoNHB87v7W5fIC8STwOCFg3akB64Ihf6OfECUZDYwPJ2kHCQ6iuVjUNfLEW3NZjrMwkCrccZdAqoGbwBTyuvkM8eUIxFZnRhATD8R/Sa9l2/6S5vXrwFa3pbkgi11WFybfPLwHIMqdQlanMYTWDWxpMZTp3jTqMXRraufGJoh9jNAvAoq7ZxflX36r+h6SIT7X0F2CvyszsmcORLC8vvODAD04/SBYV2ebKoj3drLs1FrpJgIS/mH6lDjpab8P2eWHEv5gT0LA6jiBXkuvYk6GUlHYIA5GjHdM0r8dWB049Zklcwj6qKlmLlaoZkVDoVJwiIz7Wql5abrviJ0ZiGBJO0/soFW1W3VAEM0tzbzCrc0sPx6IPomavWFZVlRkp9KoeAPp6KIwQcS6xSWl7++CwSUWnJR2cs+21tVpdoHzi3Af5QX8GlZP7Cr8AXh3ySThsaw7UT8zXtKBCEZ/Pnr1ts+/IfVRY67bCXwjY0AwAPAjAzoyTVtGXZ1uvsfqEp5PUZUkjbRjXUNR3mL2gmHzl/Y3zvtOvROPCiT5Gfig1J2n2YtsKYt82XKXOCf8wECI+aehPh+lMMvQ/FnZrTXTD1Thi3lgsiODlmVkDxgjyQeM8yDwoKEh6yYeBjL7z4CMZPGLBCMDyoQGe31UmSm+U2nt3SXe1c7/DlYfyAOdWYThfWmB+2X3aqoCbVzm2TU6BXbGC9UVyBfeDiTxeP+2cXEoLntOtn7NRC0a96zcJVKBweoDA9dgzerg8IXq5HC4Ngc9q7d6+GJkJxw1IfU9aHGSxI6TToFUAwMDGSxZXfj8Kl6/W/fxbORYPb238ehHAql8GI0bKYwYmIGB6xCzekyx3QkXysYFZyux/xi9Byc3HP0cNtP3rnvV6Gdg4IFYRDYuXr2uROR5bpPxGtRh+xYQ4mxRX7j/QXSry42ecWDgFxGyejZeuQviW+cZrzcTBiX34N3onv15/aL+oyjScdD7wMA3ELB6kgm60cPqvt8xZJeltq5F7/uvSisZF5yvxL4Mc7/BycDAjyBi9dQJnV7MVCB3Lri7W4mpMts+b+/7b9x7a/RzvgrbmpYk8wIYSwwODFwNz+qXKiBlFNuUAVMxGMmOpGGhve+/feMvWcpQ2LkMDAx0wT6r96D1wjiJ7nyQNCTb0VD6Tt1GP1d6Rej2yb3LRh20PjBwKRyrb2VfaV7qtzyjZcU1ZPW+949vWuQVaTr6SRdZdt7AwEAneFbfCC1sXeiVw4KN+2c7skbVuPQxc4bz8qy2XoPEritd7gMDA2s4Vs/P/LuQ1cMj/Q3a3qx7A01rLWo1L3lRXMbl3rfYgYEXARb/yqZM79m9QQGrN38nN2Puzhe6dWV0rHNHtvWYDW5fWFjvefrLwM3MWYPWBwY2AFrLMiGcGc8sVgHU2tCu/dwb92X1eHfFIN4vM7Q9vaioGifQ+/5lNwxHP/2jmQarDwwcAOU6VfYjL+FjVxQJz9B2uT+i9d0lfW7L6vHesrU36Wqt4+0ps3bnj7C68ed0YfXwh3Olc2Zg4ABwdRkjWoY5s4weslKjaiFRY60cfemI1Q1ugcKlXPdo/easTkZ2tDoRkhMxlP9Ip2m/mDVuy/TGaO3OwIA/UsNy3IPVJ5M+p2b043vEUCFL+koPVHBg4DrY1fPsoku8qsvn+EqW0GLV+uhmVD95U+K66Q+ZrB8sUG0X257V7etOayXwgkNzz6IXE1P2ivLMOxO1XfxqkuemJZ6BE3jTompG1jzWch4tXkeredIyzUH/JhT1Jlav/vaoKyy9u9e0wsarE7UKyxoY6AqFZKk/qHaYz2FWZh5uROugic1BOSqPWB3UJ9yp1eb71CKyMTpugFdZm/CJLeXigKdM36VDgUU4N13I6oC3dB/tsoeG1tkBXLRhIvZGorerZdJ/zPaL4n+V1WHi0U9ggsd/8K89bZImDU6E4Prw8lRRYQ0HrQ9cj7XuqpDI4YO2r1qzYylLs7kMO2ZzKQxrK76biVjdfITVsTeC7d7o+CwkYmrRR5zigesiMwVrJleiBti5IUleaAT6h0GjO2R1NsKlr6SVDo2m03yhE5ro7r8pYPW9amwfKkfL+zu9A1hwMhB1phv3W3aUhsY3ntUpWQvwN2h4qMUtJ98jH+IDYKJeoaCfHKw+8AWYFWsbovOZ3InVl1fo1Z7cnbNFHIBd4Pdjb8RCC9U0YnXF/yJjByZ9Cj5jQJLVswN14Hfb2s5W8iAjeq6brHNvJlmD2C41GylQWVZXdrFxbQJTnUtgVre3CljdEhCd7cgbjAgwhqx3Q3+nxFDpKawOjlCnyTGrfdbgJru2uj9Zax7gcJNwR2m4GGDOj0Y5hr5HbFxUupjVQ1fHzmMNVr8LYPGvbMqXeG1tjsFrvD4OQvbRJ1yTi5gyOuikF0ufIMSJ9AHpK5ySzG1EJzpahRPSvMCo+Z52EAHB4CHJ6iCsvtmX7OSBMTrjVMMXm157bEJD9A4JVmdjL/Db5qx//Zlp/aN02JyuHYmzeUlMXh0T6A8RPKs9yOBYa2ZA8bYGhS6Ibl2TL7N6dByQYifpmrizmqInys+SFb+y26WpU3CsTpqW7/ioo+QvVosAg84MbHsF3lZfzVzNP9Jg9W+iaTT014E/UWXfdjXTIUkq9lfKajPykLI/WPUhLpkfn8MGgd2NFGDCegegpWOfPrhi/pFzE+H9KPJw3qNRmA+Ukm2CLXoeRZXR+6zubPXPVqEhqyfOm58jGfqDhrN988mEI261vxfH6hCwOv6S9lndaktmrvZn5ZxzOg+pumJ/yr3YcbGgr1Ajhvjx6HOWaBrJ3tnb5ByY4gEWyYO9weDbD7tHw6OfIFgz208qbV/X0KmhHSvjbd2IZhKW19ykZMRPOEDC75U1mekYq+cPDfRG22jobwOlbGJCbZ1uuKmRau0PkJQBZF3WM/BcZvW5DwDbG+BDKlZjtPssHYPyl+MuPkfZl8Ka89qz+o7nsuAde5XdAAAgAElEQVR5NDF1GavTv6Wsnnon0XpO0Tq++hxmYkDMO9ZZWFdnVQbYTg4pIENrVoGfWV17h4FXbjcZYzfodHk9GbDfyANDGnbyADoR6C/b00i5WlgdZNAD4MZCOzWevz9StdweGn2JtxQ4doj6Zf5WDUi3bbgi1JWAl9wW3ta9ajRr0rvjJ6KhvwxQ3qSxtjrutNQKqJITySIh0w76hyWTmRW1NXTAHZAr6DN9YxJpYm9CR/keynKbPRjo3/p4HI08kPOAZlndx8BI51TI6kx1xC40SM+yOmkeLn4QHaIsTIkMxXoIEtVCL0jEZbhCjQpOLOSCesoQ+dhEdqw/WHu/XCGJnTPFpn4FJHaDkqGPZnGbXL/M6pOTsvw4iItKV8FG585Dxo93rrDbQmJY2Mc9BUINgMhb7FbhnTB5D7m7Pq7Az7P6T0RDfxkBi1qaxQ+oXpCRzla48p/tBXRw0ZmZQIYhaoWwd8NW4XYCy6YGDU48XzVkdS7C7LA6yElBDTOIV6OWoTltWcesysgULuyBJQ5fRc8O8n964U3qci7WUyuENeiGxWMuCmzGQKkbIc+mztUU2h+4oEUiiXV1GkODiVg9K8FYY8Z2zf43GIx+Np5T7/1S06OfX2f1n4iG/i5i4pPnUoYNcOqfIOTrDx6kK1T4lRg26MGdK3+JyWcmBS1sqqVLwNbpwOpqKwZmcv4AeeD/v72rMZdUhaG3H/uxH/pJP7azQxJ+VISgiOjmfO/dnXEEBPUAySHUsPr61zP7kx2k2LzWa53LttB7H6rjahaoqb4knor7Va7I6n+psRB1bXNs5QAn5nSiHieG4bwgO6uhs+zQPO6aQWYTkJy2u6FORJOaoQxMExfwf6qhn4WzLFs4Qv0dcx44+nWOzOpzZNKFaHzDngY2Ps3RHeNs2X3JJcFKDdneAmMO7xA50SaaRcxcD6GyMW27vi00dtA4nyk0sgos8V9R0iTrYB7o6W5ZYXBU7P81U6TxWZ2Klu2F5ePoUghmEXDGcCCxz86mtblsEp1ToSZdXmNsqrn78f4r6I//VA39LKIL99blYFfxDgLvUF0Nz82K1cnhSsNzulecmu1R1lbvDDDz2kiz8pZe7QN/mVkDbLgm+8HqvCF6mKxp2tmRSo9FQQNzK63DiUITRO5/WTZEn8kgfdigg7wpq5tVhuiArH0Gjq4oZQLxv6wVP7ez6rqI+Btsru0NUDX0wCYYN58AT8XBZAI01rVDJzsK+sNZPxEwPYLTuta/JqGfrVgMU5BewNGob3+SCDkjjSuH0EDZ6BaQLKE/h+Dzi+KvuLMK3W4UMeDQdCK8aFhBev7hj/tDy8F8Ipn1kr7yXDXRAN107pm43DMMe8Dqu4yvF5qY9whSZkokI9K4HJGAqqELCouHgeNwE6zgCxpWeI2MHYz/OkbUxvx+prMm54P69Vors7plyd+9sl0szqBnuj9sbw9OVBN0NbYXsJ190343hmTUB4WHwrF6/ejW/VbGceqMaaDBJH4zfizkgsaRqSmrp0u7a+Ac5imHJiZJ4nDy8bxIkjcdxTHQwBSxh6qhS2roh/GrBTs/Q9vYV5dFLviBmH9yzc0CSNtxRi84/Q42KTeNk6IaK2TiOZpd70FpyPzB53gbSBMbWYyyS6vo9WJWz7pFj2giS94Sbs++7pE/VThkPMqHvJQ0aMxV00RTnBY4Ku02msv2ovm5mJD1jzNIH0el38AMsYeqoUcfq6cf5TVbxKHq4g/JNNG5m1ySpfFXHlNDtUW1hCJnlzUsjtWz5+0Z22S4OpGcEGlbgv7xGNEKJEkpueJxxFL0hJ5R/JTKrfwlPgWbzLs8jaS9s7rQlJUkdbhwWdGXdLbx1czxSuFXQNXQyzK0XX0UOO1pe8dy+S0v5fBXmw8TTPnaEpmAU6bzgKgwPDR1jJOFFRQWFZNtHaXVNgv+xfD6xCRMvHgxgfycS3yBx3mEjNhUmZ39zEchJ0aFqqEXZXUZaJ3YkE+3jNVZZgsNLBSYhw0LUCaVhguSAJfOF7NrOJnKVy/xK1O2zM98xO2yOdd+4VUdOLoazX6y1XyX9WVRNTTXY2Bl4zgA0kINCPKkiAwCMsaRAHANe/GNbzh0Ru1QeaFeyxILE5HYkgGRjKmmBB7S4zcjmf1AyWhSg1nQNb/LUbqoGprqoUP1d0PK6m3diPPfKuLU4XltH65yFdoVWJ6IOIKV+yfS2TBQbFKq4aWitnmJZj9vo3VVQy9FNbRidFhWl036GxaKoasE3URrVi+f0o7zynSXUwdVlmXVdDasVNmm1dJTMc1d51t9oGroohpaMTqSrJ6gmrZvZ9LNljI1Ny10+0AnJiDNbEzllyeynjSAsRF3e05G8jLKW0rsAlVDC0MF5XLwN93NSDevQ1hOe7EkRRIpVvf7qcXHWrd/gsP3TxOUbcXnS7TRMbZFNmN1yUSkZZOaaRb4DVrfRlE1m5bYAaqGvliC8Rsv0RNpJ5KrPK0Rn3foeJ07vRO83O3U7DrJ6rT3zaaU0xeYhpTVYW41Bd13VLArslU19w/r3RMRkMUlu5vVb67mf4OR1dAFhK3ijZPOrVmdl9ZO0SnPIZ5ytnQ7XYHtFxE2Mp+Z5+q+L8XqvE/luqCHWN1MzQyLiaa5j9W3Be39CO2fn71Na1/l1guttgXuLO1DvCYvxMBq6DzAS0P91W/WqjoJP3mKH6F1ML7HQfr09rAB1ldY33q8JAhSRoU8jll9ffAZVjezi0bud8qkDj58ge2X7cn+S6Jh9qb2NtXc5Yt7/d1TVibDxPw9vTNdswJhX+T7eGkMjKuGLsBNrkNs+DWr+1VY08qD0A8yP/98YozcADAfbD5Xw+tjszouOb9vrF6z8WYVUjat2+YFIcPdgT2ro1ym1YuUqsH9nZdibID3LIM/ErO6k//zBiPdZJTBWSh7Im3Ai94zicxWtzW8fsjqg9jVwTS763sKT/D8i1k91aJ7Vjc+3LALAwMh8ebQ8Rc+lJr93NRRKt6CH4fjox72DFmzulu3Na2iFNwME6KuncDt27O5crLMLd+a4QUamOru8uBaExqY3RTrP2B1b9OKibr0Jf17ylNxV0epeAds6HhaejXtV+kiHKvPIezY/bi4MN5uMH7/ZZbcKOLh+jN69WSGmWFejXMa1+RECX36r7O61AIz32iBSca3aVNYogxVQw8Hw1L+dOwFxI7V7zTBtHv66izbZyDwjQvd54+sLZXm6E5B2Z5wLSptDmriI/iPVaGUL+EmVidvaffpT5LVG0Z/SIhu9kOi1jMSVUNfxzU1dC5jF+pmCFZ/wDB+ASLGli0RE8eByYbuPgPZQh37/C28PbM/xuO1zUeKP4a30cys3wb0+3J6yWLpi5VyGEXZmNTA1OwVyBmvhFbh2N4js2vl1tVUNfRVXFZDZ8BRcSyrz0esPq/t6nGUzLa4YknPZXvPWEE4DBedJmX1eW69+5toJSRa6ehUUtBbejREksSUODDH0/A/Cl1od4q0Hl/L87NPL6jmXayeME30mP3sj8RbkUivgLr0dQ6UfmdpSh2SFSKEqqEvooEaOoMpbO10OFZ3PzCf3DdWv2mmBg3bK0C83kxC60JWN+hka2ejAkkQFCBj9MQidNp5DE0Zjs0XwEBh9jekdKCVqNQXAA3SnaDH9g7l62pRO1lGNMVoVF5NoQjSrZfPN+wQCBGf7LSHZj8iZUDzsbqqoS+giRo6k71rdZNhdVjdoZvt6vegvY29IviOgNaleyHRjuotzHBhQ6RSXjTc/vFJzOo8fHftMOMInDh8ZYCx+7pj5xGxermal2vncpJE97KO9VYFUqGSyQhFmo9WI8VzHuoq7a94mn16qaM0GKzQnjrzT4vMQN9c6aNq6NNopIbOgPcF4bhmPnN/h/BpiLeHarAtyBatTcU9UBXvp3wus3qhHXDENvELf8E6CKu9Nwr5ABrDwS3L/NEJAPF1YHWYebEpn4kdmbO+IM978b2d4ghKbIRyiFq7bLblMEXk+CA/AwfcpkeJej5n0WI/Gp+GTE+Ox8m3J1nBmNUF8622UDX0abRSQ2eAFE2ejVS/S4tPYs+H/fd6sRESQStegKq2L4/r5btRO+YHiF1A8kvZp8rnAdyJGC7aG8oNb9KMnIJ/gCyFbpxpXHfA//n0kmo2goDuMCR6mzK5aUUci72ci7ywxD2im9OQTQsP25Mn7gDsV7PMfPozrK5q6CulFMY0DYbrNvS8jzLsbGS4QJweOPKMYihif1bT2VRfTodGrkaoa4OiDf7P5Ztpi6QsWUzumVNzqcGNI/kKyJKLn1xC/wfm8N2wLyj+z6evrOYVlKcFKBw/00Fuc4plFqVTsa28BcYQTxJfL8F8tfBpXmePcyRDMyUv04TyvuSNSV3V0OfRTg2dRTTtT0RbDdN096mx56OzygjaWNFq271UqGP1THMc/QJVOMrisFAaTHp7XJaPQ6uAMSk3lID3GsvOChMRCBaQk5OfZMryZMQ4a8vCa4hnN6XxEx9P/jzRodMBrenE9otL39GmZXNTNfRpNFRDSyExFrct8QE0meHUPqNQsFp5Vs+Rd6GIejZ36Q7nS+DH6BJs7Tp5Pj28GlFZYgiuItaXVXH7YQMXGnxBtS32l8jKwS5G3Qx4vSKP2HF+Mzvvtj830tCcauyTUDX0abRUQ4tRpuwM8dOUErVCxSnh0n2QXlvyujabH+uXVRQaNrB6mhGak13I2W4NdmBYvtON3a2aOfNS8qdydyg647hQCC9aoQeJ3zZ8FrfnhvTV1TwPVUOfRVM1tBxFVdbR71aByVotYsOp0Ns18fW2QOoysTbzYW1OzFcK9zNi9dQo9z5StxY1K4FPFmqKd/ECEnW6p5oZ81I21RrOOSybASVDbrl8F8F7xidHp4GPq3KUce0PJ6Fq6PM5ijN8fqMOgNTbbznh8Cm83yshxf55S3LZqjYnVkAXbujf6ttaYwUyydXZl9duiYF20jVLUSCXpouetjhVzTPlHI2npamlXO5SZAY1zbbKSGRdO2s4C1VDn0NjNfStyHgr8KdU448wUGcn2Y+31mQmqM2ZuBb5NH+b77zqEweJwsf3sIDSqJIk8LtCaTz21zQ+wb7w6mqeK2af943TH9sX/iWNkLafvE8VnSzxhmZVNfQ5NFZD3wgoOCvSmpMhbgmu2MMXMD6UvTSm/DMNXsfqS+QVk+EwoAsqzTNW3tWbH+wN+NW0DTqTvgCQCK6vF5I/kE52srSZZjjbQrBlfz/dNqQ5Wc3qYlQNfSqfxmro+yBo33GMLVsA7sf59xdFKhLV5lQ3ml+8nmD16vyBrblEy4tTU8xr3t4mS/8ALixSl1vXwXEe9ZDizjLXanmT/EwLL6N+2X0Ct1vGPThTzTPFqBq6Hq3V0HdBSNhwbF9/GPMfgl8DWW1+E8wzvWi+K2jC6qh6pphPwAvKjQvWcjSQL7N9h1eoy+NbZRpHHBqFICsQB4ja25foMrvZprUEC9qNNqa4PFVDS/OoTXCXGDQPuXXcN8pY23WjAdSFATlRmyrczOos13FrW6yqBRcCUZS/elY35XOaodtDUcd0xgvBbTJYVutj87OfvXTfldxj5grHEpwbClM1dDippxr6HtSIb5gyR/CSBgCTOhpBa962U9W4n9VnWpiIY0xidcsmOVbPPKufZPUqAK3o5FBb4DpMY6I486lkxwN8908PXr+9iFCWqqEtuquhTwAO1nwH1A06sL8ezMLuSN36S0/UphLZJJdZnXergIVWnuPaOLfy/PjF67h0JYOxJnAeGBXe+HCVLpSZieLMp1JlHdOlc1rhuUGtEKqGLqOp4Qo3yuVOdF6Fno8LqeU1uwXJYCsRsEOdMBJrra3zBK3fO1Z3q2RcJL8QeNuYc6zej2oHpSDbkhMJgiiYFgBFpWzA6nfXeNAmdVA1tAjNdgbEjZZWM4dwIJL4nGA1GI3UGZFguyZVdQPcbIGxAP8nPpjx7eVe/rh+95LEoL502q2CwmpNyOoUlsWxejqVhNXvx9CsrmpoIVqxerqj5AsPoXzOWCDOJeqBPrXpwOppZFyEcla/85Ua87HgvT7YAwa8yxy7Lg7fuDFsWh0s9+ehamh5YfVp0sUf5T8bE1aPn+PnUWn9ZG0qNbiPsXoGUla/l5HGfCpY8L/4tblODMNu1IueiltZa+Chuqqh5WhhWIesqAXmPz/xOOucHVO3etYyVEnrL2P1fsQwMAUdIKMFz1Vm9dOtpDVuk6oaugYtVPJZdiMZIMXgPF3Y85HI9jivH6qqzd2rkE5hCFYfdVB2CmJWv5WrhmV1VUNX4TJdlkoNE48rI+4Hgxsc4Eptam5UfmnZQ6yesQPsqnYbU4z00l6GvJ/83lhd1dA5NFdDi8rMXyH8+YnHpaKG6ngtrlxQTY9QHd2rCyRrS5NHoIKVVvYK8MdKl/BOjKCB6d+kqoYuo7UaWlBiwUbsJx5/cG24PZpp/VptKlK/jNVTSihYfRbrYjCMgY+LwiJZ8L2EsnrHa7inOFVDy1K1VUMLyiskn/3E4+qMqJmyvg0u1kZ8n6p2zeiIo5iNx9yE43S/X2b2NDwFTanenkphVMAtj8oW9UpUsPoFvWgpaOTZfM9A1dC3JbrETuXSKGgNzj0u9p5jDdav2vnFOphCxLYHWT1VgYzCnQNdBP8KhZLiPziGt3RNkcZm/H9BVje46bJdej+79JT8ppo9hIw6ZvfDLgaY9GGCaPbjoyaH9F2V8aqGlqOpGroEKbfZ5+ZyHNGhBuuXuxjp3S2c9xirJ1nomJko3swcrZmn9fQcAwt40c7C4Wgsh+P+Eb9XPxyZeXUmCaogX+Sytst74gpHOXC5MWaILqJG87iyWsjYmBa3QjQ6orXDUfqewR5UDV2FlmrohkVVRwlO5DDObbrewwhrU4qV/ByrJ/g0txbV1neO4ltR6CtqBY5lyDHFkMaBnn/sC2xaipjF7c77BWHGx7shgZsb8Dd3IdRFLM6gw6z+/LN1cA05y4yzSbmlTdxP7f5QzAIyZ9llOrahXQSgKIhbRwO+qqGrU1bU5hJVVm2Ser2Jx5lTtehgZB1Dqc4PsvqOhrLD5l9FwI21aT8OIMp2k2XDBM8jeHwBgL8yq1NMFRpMcFnHejgsK5qHM41h6d5k74w6vTZvyiLZfpkLsxc/m9AvclBlDvvLu6HYOhpDbcghpgz9Ht8BTu+uI3eRB5e++lDqJFUNXY92aug8alqtxf4c14f7rdDiSkStVyzoSVbfKA+zrzIPwIHt6ihQdkGAyQyDAbAWZiOyFLh/iXth9ukXTx9onOVBqwlmerLX0O8YiBLtPbM7DjGrYxClEVg9RaeH18VRNmNWp1lNcF2wTYvC0tgJCfWeE47QbUPgtldRep7O5HrKeFsNN0HAbNzMCd3ZNn5JtovPN7aqoRNop4ZuVkwbo3jbTQwvoEVtJM1Xdvk8yurLwiZxotXsiWhfWZyGxW8YFwwIQAYY46KosElmcSWQAdjtJuQtwWZxpgTqG5yFnvneW3BmjiAfszoxO9CfERhgR4WZzgaH3sZErBy5HowzX/FhHJL7iRGxOn2IxupuJ/HjIrGT8AMNssvTtAqiomD2tzqdjaqhb0594WGuusYm7TvEm2fRpDaCjrvcxA+z+rI4gi6dZfzcPD+kD+5NO4je9RU+YpZjde4liKicLcdEEhpvwWFu347VqdAxWH0z4cm3la/VsvgY7jyroUoyu/rTsIWosQyyOg3gwXeOLltX9MZMz2H3Jw7RTJ0w7bRCLe/MbBRC9ngno8LDomrog+SN1NBZ1DRZm15zFBNMm+sot5/AQ/I8q8sAYXfJrNU2WlvINpXdKUw64XwkKzBhNOqN9eyS9RYcR2OezL25YhBWj7q9Yl+J0X555uJt6WRr4omP29MqzIl49mOcWcr49L6jnNl9SvYdv0Gft8uTBQfnBW5qsGZ1m26G45DDqoY+iVZq6HzSGgNMuRyJDGGQmyQziRdPKOUiuYtvYfXleAeOzWmy3Pg8tjwAM1Qw07uVqW6PJ7fTE9uZnZ6S/svaC3oDAvInkiNi4ZEzJuUM3J+FDFn+Iy7wCY5N/sdQeidrNK43nDlKPPkpvAkevRPBgjPvWN2N/Q/eElVDn8+gjRo6h6qep9i6di5X1nKOwuoC24nggSyZFyU35zWsvogZW5KTZ3VvLWAy8xZ63g/ajXnBUVewKyzOsE8Jm11cCwiGOOyCKNlp4kkI+agTZcU2rWgaMxvvh3VmHXZi24809aF+Mtjsg1Y1TRCqhj6PRmroHKo6hNJICKaZ/+SzGePdKzauXUVRvtR8NrLFcQOyejxuvKsINyrNPFeAG7dvfz8gwBH06rWQuDOWbY1zKwroX69SIpO9ZWyeFjivMo7AnEGLZz805XF7by9RYIcNVA19AW3U0Nm0FRcpcJBgD1+iwkFYvTjcgGUSsHqIXJW4D8IVzw+w+kabzJ/81J7WuKAi+S6m9MaC7CDVmWI2h2+6pkfQsC/yXg832+EwaqQuNWyWN8GKz0vDeCEXnQ5Ol4pvc+riVA19BW3U0DnUNHlZoDrxPyWjREWh90FQ9VnC6jP/kxjYS2PlD8Hq7JOLxW24D3OCU5vQ0DA28O8g2LS2z12w0JPWdGeXP7jJyVutauhLaKOGzqElqxt2dk+vYHXJVUhYHfMxNubyttryTXUfZnVYOBCjd5hNXomSckE2YfUXWksKgN0H/OINTV5geN8VOPtLzqaF0hRpT508qmroi5m0UENnUEWwpZMdB5bsFp9jdd7McM3qIHG1MvqzOszRTHvGTWyY1Y1ndecr279SDR7twRybLeCpNIStYd3JsrDKED2dt81+tgPwu6Bq6GtooobOpq44uVQlx+YlLhzDpd2M1ad4L0N3kNW+QjzC6ryYn+OIJFmdeqbsrmWnL2CEZ6AtdmN1F6+GhZu0StSpy9dJ27L6vVA1dB4C4VPphGsWp6qZjZzV8yeOweqSGyRh9WWaQ8ALxG5zmCKeYHXWQfjlmntWRwP7fA+rf5HUzeJkljwNmqMgi7zOx4Ur2yVuMf3p1Kaqhs6e0kkNnU3f8OR3jdXbsTowrU80w57nOSvrSKA/q9PCQrf4kNdt0qp9S0xkn1kWJ3nbZ3DtFr5Rg1gCrf13KzaNMUlWJ1nRHW9AtzZVNfQx+qmhsxk0PHkS29VHeKXbWWCsnxhZfU7FPJHgIVYncTIvyGeBm5PDcTiuQ8nyJQr5IqkvnsZnt+FTeqxu9eJ3aDq6tamqoY/RTw2duwj1luZQoYH5k/TRR+jO6iFkCEtg/P/rD+DOTWRxpfgPkvpCq3q8p8LF4gp2dRrkwmonowgXG6Vfm6oaOodeaugc6u5Q/vf/WNmIcUffw+pp6dvhis3mxX+R1P1uTz5oMMcbC6Hh/aqg5LN3sVX6DWZVDZ1DLzV0Dk373Yn73ULdx7hDjftdmC/Mqruz+qO8+kn7C8XTcjFpSP5PhziYfLS888CecKlZ+q3p0vl9Fr3U0NlruMFGVqK3QfasasXq7pQL79WAcWAEOMlC3yT1ZBDgg0fihgbo2Kaqhs6ilxo6hyovRKlMO14VdDeDeD7K/myY/srN3OJGvJPVz1HJZ0k9Va2KBZvXiu/YpqqGzqKXGjqHqplNWXtqaJPFPIa4QQKBFoU8LV1sCznDf8Tq3yT1Vkx9Mpeubapq6Cx6qaFzaB6oR5DdEDeolSGoRUi6t7L6CsI98j5K6o1wrnX6NqqqobPopYbOX0SVYb1FiWM4PlpdR5O+4fWsDitkz+t3US/Eqfbp3KjqLc2ilxo6i6aG9fYl3ole8dfKeC+rs+Y9iuya43Ul9RLGJ3VVQ+fRSw1dKKDimWhCYf9drOQy3svqKRY/pHUl9RrQnqxFq1b/RlU1dA691NCFEqrCal4vb5D7s4xUmzezenpBUzrIgJK6FLzVNiEbXq3/5iOqhs6hlxo6j6qYFN127euBfnsQlvBmVj8Ylif2S9bNj0Rw+23Hhw55/YlGVTX0MfqpoQuo6Qavd5ljOLMJ3fYLL+G9rH5sQt/SjQ7UhQAj7xIf2XtE1dDH6KeGLqHGWn75egbpdBHXzSeNJoavZfXM87u2t6j1RYzkKtV0Cz7TqKqGvogmauhiIfImKwdCbldWB1z2/jbqdN/K6llWiX9UUhfjsKl2PzzWqKqGvoY+TgI51c7XNtQbxuvBuBrnuokmaHktqxdoheP4KqfXINNWm5+ea1VVQ1/MpE9tpFyN+wFcKWisofrVTqbZTOq1rF74GTCyqJJ6BfJruFZfHmtVVUNfQjcSlNE6cuClu9Spl5JjjNq8k9UF4QEW8zcN1pGPDcHsZ+GFX12uJw1VQz+dhwwSWqc4kVesFmPZXyyu9JvtavNZVreropXV5SiRNcZqt5txPDv9UTX0FXSsTXG3PHCa0vNkNpr9xWKI2ryS1QWqOgx10WYjgP8DJbL+tTnMU7uQrWehaujz6Fqb/N5KEA3mz96m69us3oGzF9Xy5ryT1cv19xtaK0QoN+mvOffboj0AVUOfRmeDhTkcA6x36TjJzmOS+hC1+QarJ1ZAPk8/r4KA1ecbI/1VQNXQp9G7T4YDXt/uvHSO0cYk9SFq80pW3zYALqvbHhvpfRwfgubiHRY6XEweqoY+iQdoEMxWsvBj+r2K4UzN5qHuTYwzY4G2tfkEqy+JqbKyeg32rbX3isLjrlKGqqFPocu60j0sixuKGGdw76VkTL7aHgfGJfUBavMRVt+/f0Pwz2uQsmmN20+qGrp74kvgnfRw76WjU+qubmhSP1GbxrfmI6yuFphrSAzMd9Q5UIuqGroe49VmhSqehnmahrAGHgCmGo9Oe7fvR1h9/54PxEEvQKK1Bh6rqxq6HiPWZg25E8RMwHuvDiC1TQAwxLO4Nu3vzFdYXcPvXsK+tbY6hcFaVNXQdRif1LHFJUipgcoAAAfiSURBVBeJt97u0UcYQGy7AT18ZpLWpv0VfILVU9L0oThoeKTG6kOzuqqheyTrDNgbUg/PmQcndeRrcW0a45WsvgsMm/DCDMZBgyPVWlsTzGgtqmpoOUatzRZFJvT33IxK6tF7UqoN3OUb+ASrnztFEbD3lr7BpqVqaCHGrc0OMB9bLuLfDJlghnsm18jxdq6mF/FOVi+PPMajoKGxn/0k9erjQdXQkgQD12YPa0DbPX6A6sio4mhYf0FUVjvy2G08aBVmAvvMabyS1UVRS3pcx2cgofBRm1TV0E1PHwFA65g95kR/PY8Xve/gDdnW5v5F2h9l9VEZaFRIFo2+uU1VDf020OTLMBsmnk8zQlCiFTK2MaqMYXK//U16J6uX48YO+0oOCsHsZ7B3qBKqhv4YLodua42BWvqbrK6kXovv27RUDf0xhFHGsemtH4Zq6Zeyep5jxghC9S4Um+zdQ/VF1dDfxQj1HCkS/2tZPcdCSuonUGqzAYZDl6Fq6K8iv9T4v8OLWf1Q8KCkfgaS3ahfD1VDfxVDjZWfxmtZ/ZC8ldRPItduL3eVRlA1tKIpRqSb97I6bk2aPNr/Uj6BTMt9q1FVDa1ohRFM+nu8mNVTvJ5meoUIh233vUZVNfRH0bk720c2HQKvZnUk8ch9pJx+DQfN9z+2qqqh34m+btMxOf3trO543ePpy3k7Ek34nzarqqFfiuMIzf8P3s7qFkrp7bBtR23XIUynqvCowAjd8LP4AqsrWgJ8vEbcjOR/f0EsVA2tWGH02DrK6ood2PumlO6hY+UX4q6nV7Ks91koqysU40I71tOAe4KzvWHipqyuUIyKEUz6L4bVejZn4Df0s8rqCoUUqoZ+Gfa71F/I6z33QlldoZBC1dBvxdWWxNAMTa6kB5TVFQo5VA39SqCN/fxg+yYT/W1QVlcoaqBq6FcCzAnliusIXmR8QSirKxRjYXQ19FvhuFkm2aWoaS+jc4ayukJxBv+vGvrt+NH1dBhlGQL3v3e9hrK6QnEC/7Ea+hPgVv7dRgv6YqZpepNT9BDK6grFKfy3auhvIQ4h9ZXGV1ZXKE7iP1VDK0aHsrpCcRX/lxpaMTqU1RWKi/jP1NCK0aGsrlBcxn+lhlaMDmV1haIF/h81tGJ0KKsrFC3xfTX0FwC36F3ALTx+eAsxZXWFojk+rYZ+P+DX696wEQqYvwnvvM37yTutrK5Q3IcvqqFfD4NTKXPDaoO/mfLHv8/RurK6QqH4EkpOaGA6bz+aNsjq3F08GM5HWV2hUHwJxKZwOBR3JjGYWg/W5z+w2TKbm+b5S6GsrlAoXoXIFRnZt4BsXDAjq8I0xb/gv/S/+XNj6HnaZhz+RCWE7L0rNL6W6FKmCXMNXpVz9bsMZXWFQvEmmNnwfq5g4k/GDsJh/rMuaTP9TaRHAT5utwsEy7iB7nFoHef7+8Vgp2BYxWSztd9tattfhOKZ4ClzdwFI44HLd71GLyirKxSKF8EOgclmbQ3YND7G72jVht/f3/j5R+4kHbWkbMgwMsGP6w38ea4No3b6Ov3Bj5x/6Y39uHAETVsA5jrjQRyKT2RlsTYWsrPYzsWW6T2mFpteox+U1RWK1vi2GvphAJE3ETZZycnWQSTNVM2MiufQ5x8T23aLWX1aDaaR9236XzMjd6MVh1ga/n5dCIBziNJ433iWpwE9lmMCq296jX5QVlco2uLrauinwc0QBsUQkSxTOA3hiWKJ/X+nG3/Ip4vzNXiGHeTbbgIoK5g5byecwXE/XkLInHoVNqsHKo+K6gtldYWiKT6vhn4aM9F6oE9mz4nH1/YzuEMG2PI+My9nWd0aV7wZxfaihsM6zC4Vj8eRyv8Mh/+hSyFuV1ZXKN4GVUM/DUDiDV5P4OE5NQ85K501ZjLObDUx2x6zOvH5NDna/jG5t3mFwqydnobmNnOIJgbE58rqCsXboGrox2GsaTzYxz2pknGdxtY8nN8z+KFdPTKrUI8xBX6OXKBmYqoPmVMabwdSu7pCMRhUDT0yAIfpf8AkjId4DmMN4rZ90DVqhTCOeNdkO200MD7g2h8ZUOzX30dw93ht7YFIF2n4ZzdIxzJVA6NQjAZVQw8N9Cpg1SdqOuJ321S/QTR2t0StJFixIhYcW4e7Ma/v0Bz8oMYN6Sk5HTAra4/Nks93mVN/wJLI1bmqV1coRoCqoceG7RFJ1GJsBExL2NzVIj0DtZ01qNuz7S/YR0YmdG/DgpkG53yf2Nk6++Qw/VHilQHmd58m50GdyFnKJ/6F27YuqDuU1RWKCKqGHhsQomCCi1FPo3HaGxzYJ+qYNWj8fRZrz4fTyPAZECX3iUNqOx2wJM6ZR1fiy/R+bI0Do1CMAVVDfx2Odh2bV2hQuUPIm1Y4w/bucjGU1RWKGKqG/jyIdlnxDzU7gYtYncSnT0pPldUVihiqhv4+LJO7ZVxVwRfIqFIc3VvTTE1n0RrK6grFCqqG/i9wjnTtJuKmTNgP+7GV1RUKD1VDKz4AZXWFwkPV0IoPQFldofBQNbTiA1BWVyg8VA2t+ACU1RWKlvi+GloxOpTVFYqm+LwaWjE6lNUVirb4uhpaMTqU1RWK9viyGloxOpTVFQqF4ktQVlcoFIovQVldoVAovgRldYVCofgSlNUVCoXiS1BWVygUii9BWV2hUCi+BGV1hUKh+BKU1RUKheJL+AfzgYZ6yzSZkAAAAABJRU5ErkJggg==;" vertex="1" parent="1">
          <mxGeometry x="-750.75" y="115.05" width="851.5" height="339.91" as="geometry" />
        </mxCell>
        <mxCell id="P6L5Ttc8KSvzvgR443wK-23" value="" style="endArrow=open;endFill=1;endSize=12;html=1;strokeWidth=3;" parent="1" edge="1">
          <mxGeometry width="160" relative="1" as="geometry">
            <mxPoint x="127" y="295" as="sourcePoint" />
            <mxPoint x="301" y="295" as="targetPoint" />
          </mxGeometry>
        </mxCell>
        <mxCell id="P6L5Ttc8KSvzvgR443wK-24" value="2" style="ellipse;fillColor=#ffffff;strokeColor=#000000;fontSize=18;" parent="1" vertex="1">
          <mxGeometry x="151" y="265" width="20" height="25" as="geometry" />
        </mxCell>
        <mxCell id="P6L5Ttc8KSvzvgR443wK-25" value="&lt;b&gt;&lt;font style=&quot;font-size: 15px&quot;&gt;Self-Adaptive System&lt;br&gt;&lt;/font&gt;&lt;/b&gt;" style="shape=cube;whiteSpace=wrap;html=1;boundedLbl=1;backgroundOutline=1;darkOpacity=0.05;darkOpacity2=0.1;" parent="1" vertex="1">
          <mxGeometry x="301" y="230" width="130" height="110" as="geometry" />
        </mxCell>
        <mxCell id="P6L5Ttc8KSvzvgR443wK-26" value="&lt;b&gt;&lt;font style=&quot;font-size: 15px&quot;&gt;Traces&lt;/font&gt;&lt;/b&gt;" style="shape=cylinder3;whiteSpace=wrap;html=1;boundedLbl=1;backgroundOutline=1;size=15;" parent="1" vertex="1">
          <mxGeometry x="581" y="255" width="60" height="80" as="geometry" />
        </mxCell>
        <mxCell id="P6L5Ttc8KSvzvgR443wK-27" value="" style="endArrow=open;endFill=1;endSize=12;html=1;strokeWidth=3;exitX=0;exitY=0;exitDx=130;exitDy=65;exitPerimeter=0;entryX=0;entryY=0.5;entryDx=0;entryDy=0;entryPerimeter=0;" parent="1" source="P6L5Ttc8KSvzvgR443wK-25" target="P6L5Ttc8KSvzvgR443wK-26" edge="1">
          <mxGeometry width="160" relative="1" as="geometry">
            <mxPoint x="441" y="295.75" as="sourcePoint" />
            <mxPoint x="561" y="295.75" as="targetPoint" />
          </mxGeometry>
        </mxCell>
        <mxCell id="P6L5Ttc8KSvzvgR443wK-28" value="&lt;font style=&quot;font-size: 14px&quot;&gt;p1 acceptQuit()&lt;/font&gt;" style="text;html=1;align=center;verticalAlign=middle;resizable=0;points=[];autosize=1;" parent="1" vertex="1">
          <mxGeometry x="467.05" y="265.75" width="110" height="20" as="geometry" />
        </mxCell>
        <mxCell id="P6L5Ttc8KSvzvgR443wK-29" value="3" style="ellipse;fillColor=#ffffff;strokeColor=#000000;fontSize=18;" parent="1" vertex="1">
          <mxGeometry x="441" y="263.25" width="20" height="25" as="geometry" />
        </mxCell>
        <mxCell id="P6L5Ttc8KSvzvgR443wK-30" value="" style="endArrow=open;endFill=1;endSize=12;html=1;strokeWidth=3;exitX=0;exitY=1;exitDx=0;exitDy=-15;exitPerimeter=0;entryX=0.89;entryY=0.888;entryDx=0;entryDy=0;entryPerimeter=0;" parent="1" source="P6L5Ttc8KSvzvgR443wK-26" edge="1">
          <mxGeometry width="160" relative="1" as="geometry">
            <mxPoint x="473.04999999999995" y="385" as="sourcePoint" />
            <mxPoint x="130" y="326.03999999999996" as="targetPoint" />
            <Array as="points">
              <mxPoint x="471" y="365" />
              <mxPoint x="231" y="365" />
            </Array>
          </mxGeometry>
        </mxCell>
        <mxCell id="P6L5Ttc8KSvzvgR443wK-31" value="&lt;font style=&quot;font-size: 14px&quot;&gt;Retrieve&lt;/font&gt;" style="text;html=1;align=center;verticalAlign=middle;resizable=0;points=[];autosize=1;" parent="1" vertex="1">
          <mxGeometry x="326" y="375" width="70" height="20" as="geometry" />
        </mxCell>
        <mxCell id="P6L5Ttc8KSvzvgR443wK-32" value="4" style="ellipse;fillColor=#ffffff;strokeColor=#000000;fontSize=18;" parent="1" vertex="1">
          <mxGeometry x="301" y="372.5" width="20" height="25" as="geometry" />
        </mxCell>
        <mxCell id="P6L5Ttc8KSvzvgR443wK-33" value="&lt;font style=&quot;font-size: 14px&quot;&gt;pick() and send() : &lt;/font&gt;&lt;font style=&quot;font-size: 14px&quot;&gt;δ&lt;/font&gt;" style="text;html=1;align=center;verticalAlign=middle;resizable=0;points=[];autosize=1;" parent="1" vertex="1">
          <mxGeometry x="165" y="265.75" width="140" height="20" as="geometry" />
        </mxCell>
        <mxCell id="P6L5Ttc8KSvzvgR443wK-34" value="&lt;b&gt;&lt;font style=&quot;font-size: 17px&quot;&gt;Test Generator&lt;/font&gt;&lt;/b&gt;" style="text;html=1;align=center;verticalAlign=middle;resizable=0;points=[];autosize=1;" parent="1" vertex="1">
          <mxGeometry x="-395.00000000000006" y="95.05" width="140" height="20" as="geometry" />
        </mxCell>
        <mxCell id="P6L5Ttc8KSvzvgR443wK-35" value="" style="endArrow=open;endFill=1;endSize=12;html=1;strokeWidth=3;exitX=0.985;exitY=0.175;exitDx=0;exitDy=0;exitPerimeter=0;entryX=0.991;entryY=0.118;entryDx=0;entryDy=0;entryPerimeter=0;" parent="1" edge="1">
          <mxGeometry width="160" relative="1" as="geometry">
            <mxPoint x="123.11999999999989" y="213.5" as="sourcePoint" />
            <mxPoint x="15.877080000000205" y="212.71209999999974" as="targetPoint" />
          </mxGeometry>
        </mxCell>
        <mxCell id="P6L5Ttc8KSvzvgR443wK-36" value="&lt;font style=&quot;font-size: 14px&quot;&gt;update(v5)&lt;/font&gt;" style="text;html=1;align=center;verticalAlign=middle;resizable=0;points=[];autosize=1;" parent="1" vertex="1">
          <mxGeometry x="45" y="185" width="80" height="20" as="geometry" />
        </mxCell>
        <mxCell id="P6L5Ttc8KSvzvgR443wK-37" value="5" style="ellipse;fillColor=#ffffff;strokeColor=#000000;fontSize=18;" parent="1" vertex="1">
          <mxGeometry x="24.999999999999943" y="180" width="20" height="25" as="geometry" />
        </mxCell>
        <mxCell id="P6L5Ttc8KSvzvgR443wK-38" value="" style="endArrow=open;endFill=1;endSize=12;html=1;strokeWidth=3;entryX=0.987;entryY=0.232;entryDx=0;entryDy=0;entryPerimeter=0;" parent="1" edge="1">
          <mxGeometry width="160" relative="1" as="geometry">
            <mxPoint x="-5.949999999999818" y="250" as="sourcePoint" />
            <mxPoint x="130.05000000000018" y="250.35000000000036" as="targetPoint" />
          </mxGeometry>
        </mxCell>
        <mxCell id="P6L5Ttc8KSvzvgR443wK-39" value="&lt;font style=&quot;font-size: 14px&quot;&gt;selectComponent(): v5&lt;/font&gt;" style="text;html=1;align=center;verticalAlign=middle;resizable=0;points=[];autosize=1;" parent="1" vertex="1">
          <mxGeometry x="25.00000000000007" y="225" width="160" height="20" as="geometry" />
        </mxCell>
        <mxCell id="P6L5Ttc8KSvzvgR443wK-40" value="1" style="ellipse;fillColor=#ffffff;strokeColor=#000000;fontSize=18;" parent="1" vertex="1">
          <mxGeometry x="2.050000000000125" y="220" width="20" height="25" as="geometry" />
        </mxCell>
      </root>
    </mxGraphModel>
  </diagram>
</mxfile>
